<svg id="Layer_1" data-name="Layer 1" xmlns="http://www.w3.org/2000/svg" viewBox="0 0 883.18 1056.8"><defs><style>.cls-1,.cls-10,.cls-4,.cls-8{fill:none;}.cls-1,.cls-10,.cls-2,.cls-4,.cls-6,.cls-7,.cls-8,.cls-9{stroke:#000;}.cls-1,.cls-10,.cls-2,.cls-4,.cls-5,.cls-6,.cls-7,.cls-8,.cls-9{stroke-miterlimit:10;}.cls-1{stroke-width:5px;}.cls-2,.cls-3,.cls-5,.cls-6{fill:#fff;}.cls-2,.cls-4,.cls-5{stroke-width:3px;}.cls-5{stroke:#050505;}.cls-9{stroke-width:7px;}.cls-10{stroke-width:11px;}</style></defs><title>detailed3</title><path class="cls-1" d="M410.24,877.56c-9.06,24.36-39.85,29.05-52.88,24.21a41.12,41.12,0,1,1,52.88-24.21Z" transform="translate(-48.43 -37.97)"/><polygon class="cls-1" points="360.82 894.87 243.74 850.02 247.44 840.07 364.53 884.91 360.82 894.87"/><path class="cls-1" d="M712.45,846.6c10.51,23.77-8.27,48.62-21,54.24a41.12,41.12,0,1,1,21-54.24Z" transform="translate(-48.43 -37.97)"/><polygon class="cls-1" points="701.88 852.72 586.73 902.31 582.44 892.6 697.59 843 701.88 852.72"/><path class="cls-2" d="M499.83,597.16s-59.28,273.24-33.72,294.4S499.83,597.16,499.83,597.16Z" transform="translate(-48.43 -37.97)"/><path class="cls-2" d="M502.73,597.75S460.78,878.7,487.55,895.88,502.73,597.75,502.73,597.75Z" transform="translate(-48.43 -37.97)"/><path class="cls-2" d="M508.07,601.58s-27.07,285.36.51,299.06S508.07,601.58,508.07,601.58Z" transform="translate(-48.43 -37.97)"/><path class="cls-2" d="M522.54,604.59s-27.07,285.36.51,299.06S522.54,604.59,522.54,604.59Z" transform="translate(-48.43 -37.97)"/><path class="cls-2" d="M571,603.85s3,288.43,31.59,295S571,603.85,571,603.85Z" transform="translate(-48.43 -37.97)"/><path class="cls-2" d="M559.53,611.91S559,900.37,587.6,907.75,559.53,611.91,559.53,611.91Z" transform="translate(-48.43 -37.97)"/><path class="cls-2" d="M567.93,609.1s-27.07,285.36.51,299.06S567.93,609.1,567.93,609.1Z" transform="translate(-48.43 -37.97)"/><path class="cls-2" d="M552.43,609.1s-27.07,285.36.51,299.06S552.43,609.1,552.43,609.1Z" transform="translate(-48.43 -37.97)"/><path class="cls-2" d="M538,609.1s-27.07,285.36.51,299.06S538,609.1,538,609.1Z" transform="translate(-48.43 -37.97)"/><path class="cls-3" d="M160,527" transform="translate(-48.43 -37.97)"/><path class="cls-2" d="M256.24,235.89c-27.44-77.7,32.54-126.45,30.84-124.23-1.4.95-48.76,18.54-63.58,92.32-10.27,49.53-6.47,33-8.6,43.05" transform="translate(-48.43 -37.97)"/><path class="cls-2" d="M359.61,466.21c-26.41,72-162.71,67.06-160.88,67.13,2.7,1,199.56,64.72,221.68-49.69" transform="translate(-48.43 -37.97)"/><path class="cls-2" d="M420.74,483.67c-26.41,72-165.33,69.68-163.5,69.75,2.7,1,199.56,64.72,221.68-49.69" transform="translate(-48.43 -37.97)"/><path class="cls-2" d="M429.39,367.66c-157.18-66.36-204.33-172-126.61-248-26.2,22.7-74.22,54.14-58.5,119.63,10.41,43.36,84.88,93.93,180.42,164.34" transform="translate(-48.43 -37.97)"/><path class="cls-2" d="M238.77,233.27c-27.44-77.7,32.54-126.45,30.84-124.23-1.4.95-48.76,18.54-63.58,92.32-10.27,49.53-6.47,33-8.6,43.05" transform="translate(-48.43 -37.97)"/><path class="cls-2" d="M235,234.48c-44.3-68.68,3.05-127.8,2.56-126.85-1.21,1.19-43.58,24.93-44.89,100.17-1.19,50.57-.43,33.61-.72,43.9" transform="translate(-48.43 -37.97)"/><path class="cls-2" d="M225.41,240.28c-51.21-63.69-14.78-131.55-15.17-130.55-1.08,1.3-39.75,24.91-33.21,99.87,4.08,50.42,3.08,33.47,3.86,43.74" transform="translate(-48.43 -37.97)"/><path class="cls-2" d="M215.81,236.34c-39-22.42-41-126.3-41.27-125.25-.85,1.46-28.91,43.52-15.22,103.25,1.61,7.88,3,21.61,18.24,46" transform="translate(-48.43 -37.97)"/><path class="cls-2" d="M198.81,247.58c-38.7-21.82-41.26-132.25-41.48-131.21-.86,1.45-30.18,38.8-14.66,110,11.72,48.45,20.45,50,22.78,59.9" transform="translate(-48.43 -37.97)"/><path class="cls-2" d="M185.65,269.44c-52.24-42.11-46.87-132.89-47.34-133.55,0,0-35.16,35.44-8.32,114.27,18.89,46.13,27.76,46.37,31.56,55.78" transform="translate(-48.43 -37.97)"/><path class="cls-2" d="M171.3,297.35C112,266,116.68,149.42,116.09,148.87c0,0-13.52,19.16-14.28,23.7,0,0-22.7,51.45,9.84,115.76,35.56,52.2,56.36,48.52,61.88,57" transform="translate(-48.43 -37.97)"/><path class="cls-2" d="M168.23,321.19C96.51,286.05,95.68,172.35,95.1,172c0,0-39.44,57.34,19.57,146.61,44.15,45.17,62.67,38,69.6,45.39" transform="translate(-48.43 -37.97)"/><path class="cls-2" d="M179.74,353.39C65.49,299.67,80.33,190.59,79.58,190.27c0,0-56.46,119.23,29.79,166.14,31,10.59,90,26.48,90,26.48" transform="translate(-48.43 -37.97)"/><path class="cls-2" d="M199,374.12c-101,2.72-144.44-108.58-143.52-107,.59,2.82-31.78,65.11,53.76,125,71.42,48.26,105.32,43.74,163.84,36.07" transform="translate(-48.43 -37.97)"/><path class="cls-2" d="M226.73,400.46C158.39,435.23,53.39,339,54.52,340.92c1.29,2.58-7.36,71.05,90.61,107.2,61.85,15.72,93,11.59,134.33-5.29" transform="translate(-48.43 -37.97)"/><path class="cls-2" d="M251.29,418.85c-59.2,48.74-179.6-16.45-178.06-15.47C75,405.62,78.47,469,181.93,483c63.79,2,93.29-8.8,130-34.23" transform="translate(-48.43 -37.97)"/><path class="cls-2" d="M275.56,434.13C234.37,498.81,107.45,466,109.22,466.43c2.42,1.57,23.4,65.41,126.15,46.76,61.26-17.89,75.46-19,102.49-54.55" transform="translate(-48.43 -37.97)"/><path class="cls-2" d="M303.73,447C277.32,519,141,514.06,142.84,514.13c2.7,1,199.56,64.72,221.68-49.69" transform="translate(-48.43 -37.97)"/><path class="cls-2" d="M265,273.29c-29.66-23.56-29.32-53.1-28.76-60.18a.48.48,0,0,0-.86-.34c-3.16,4-11.86,17.78-1.49,50.22,8.07,25.81,5.55,17.09,7.17,22.35" transform="translate(-48.43 -37.97)"/><path class="cls-2" d="M255.35,281.59c-21.55-10.7-27.62-66.07-27.7-65.51-.41.81-12.4,24.16-3.16,55.6,1.11,4.15,2.33,11.43,11.22,24" transform="translate(-48.43 -37.97)"/><path class="cls-2" d="M246.17,290.39C225,279.62,221.11,220.69,221,221.25c-.43.8-15.23,21.41-5.31,59.11,7.37,25.61,12.07,26.26,13.54,31.47" transform="translate(-48.43 -37.97)"/><path class="cls-2" d="M238.56,298.75c-27.93-22.52-25.06-71-25.31-71.4,0,0-18.8,19-4.45,61.09,10.1,24.66,14.84,24.79,16.87,29.82" transform="translate(-48.43 -37.97)"/><path class="cls-2" d="M233.22,311.81C201.5,295,204,231.1,203.7,230.8c0,0-7.23,11.86-7.63,14.29,0,0-12.14,27.51,5.26,61.89,19,27.91,30.13,25.94,33.09,30.49" transform="translate(-48.43 -37.97)"/><path class="cls-2" d="M231.58,324.55c-38.34-18.78-38.79-79.58-39.1-79.78,0,0-21.09,30.66,10.46,78.39,23.61,24.15,33.51,20.31,37.21,24.27" transform="translate(-48.43 -37.97)"/><path class="cls-2" d="M237.73,341.77c-61.08-28.72-53.15-87-53.55-87.21,0,0-30.19,63.75,15.93,88.83,16.58,5.66,48.14,14.16,48.14,14.16" transform="translate(-48.43 -37.97)"/><path class="cls-4" d="M364.72,263" transform="translate(-48.43 -37.97)"/><path class="cls-4" d="M263.42,276" transform="translate(-48.43 -37.97)"/><path class="cls-2" d="M248,352.85c-54,1.45-77.23-58.05-76.74-57.21.32,1.51-17,34.81,28.74,66.83,38.18,25.8,56.31,23.39,87.6,19.29" transform="translate(-48.43 -37.97)"/><path class="cls-2" d="M262.86,366.93c-36.54,18.59-91.15-32.52-90.46-31.83.69,1.38-5.55,38,46.82,57.31,33.07,8.41,49.72,6.2,71.82-2.83" transform="translate(-48.43 -37.97)"/><path class="cls-2" d="M279.78,377.53c-31.65,26.06-97.54-2.74-96.71-2.22,1,1.2,6.58,26.73,61.9,34.27,34.1,1.05,42.31-1.68,61.94-15.27" transform="translate(-48.43 -37.97)"/><path class="cls-2" d="M289,383.42c-22,34.58-89.88,17-88.94,17.27,1.29.84,12.51,35,67.44,25,32.75-9.56,40.35-10.16,54.8-29.16" transform="translate(-48.43 -37.97)"/><path class="cls-2" d="M306.3,391.06c-14.12,38.49-87,33.59-86,33.62,1.44.54,29,33.42,80.51,11.93C330.74,420.26,325,425.82,335,404.17" transform="translate(-48.43 -37.97)"/><path class="cls-2" d="M333.58,403.1c-7.47,40.31-92.62,41.6-91.65,41.48,1.51.29,88.36,31.38,116.94-31.68" transform="translate(-48.43 -37.97)"/><path class="cls-2" d="M357.86,412.78c-10.92,42-90.63,42.2-89.67,42,1.53.19,92.44,31.05,116.55-33.84" transform="translate(-48.43 -37.97)"/><path class="cls-2" d="M417.51,438.12C393.39,503,299.86,478.54,298.33,478.36c-1,.19,81-3.8,91.94-45.79" transform="translate(-48.43 -37.97)"/><path class="cls-2" d="M404.41,428.51c-24.11,64.89-115,37.81-116.55,37.62-1,.19,81-3.8,91.94-45.79" transform="translate(-48.43 -37.97)"/><path class="cls-4" d="M267.46,311.63,335,380m-46.53-59.31M236.32,299.5" transform="translate(-48.43 -37.97)"/><path class="cls-4" d="M263.34,275.84" transform="translate(-48.43 -37.97)"/><path class="cls-4" d="M248.55,318.44,316.1,386.8m-46.53-59.31M217.4,306.31" transform="translate(-48.43 -37.97)"/><path class="cls-4" d="M229.64,325.25m67.55,68.36M250.66,334.3m-52.17-21.18" transform="translate(-48.43 -37.97)"/><path class="cls-4" d="M210.72,332.06m67.55,68.36-46.53-59.31-52.17-21.18" transform="translate(-48.43 -37.97)"/><rect class="cls-2" x="237.12" y="329.34" width="18.42" height="18.42" rx="8.34" ry="8.34" transform="translate(477.97 -10.64) rotate(78.02)"/><rect class="cls-2" x="243.17" y="339.17" width="18.42" height="18.42" rx="8.34" ry="8.34" transform="translate(492.38 -8.77) rotate(78.02)"/><rect class="cls-2" x="254.22" y="348.33" width="18.42" height="18.42" rx="8.34" ry="8.34" transform="translate(510.09 -12.32) rotate(78.02)"/><rect class="cls-2" x="269.05" y="359" width="18.42" height="18.42" rx="8.34" ry="8.34" transform="translate(532.28 -18.37) rotate(78.02)"/><rect class="cls-2" x="285.39" y="371.93" width="18.42" height="18.42" rx="8.34" ry="8.34" transform="translate(557.89 -24.1) rotate(78.02)"/><rect class="cls-2" x="301.73" y="384.87" width="18.42" height="18.42" rx="8.34" ry="8.34" transform="translate(583.49 -29.84) rotate(78.02)"/><rect class="cls-2" x="318.07" y="397.81" width="18.42" height="18.42" rx="8.34" ry="8.34" transform="translate(609.1 -35.57) rotate(78.02)"/><rect class="cls-2" x="329.12" y="405.45" width="18.42" height="18.42" rx="8.34" ry="8.34" transform="translate(625.33 -40.32) rotate(78.02)"/><rect class="cls-2" x="339.71" y="414.53" width="18.42" height="18.42" rx="8.34" ry="8.34" transform="translate(642.6 -43.49) rotate(78.02)"/><rect class="cls-2" x="229.71" y="312.21" width="20.47" height="20.47" rx="8.34" ry="8.34" transform="translate(457.15 -17.16) rotate(78.02)"/><rect class="cls-2" x="247.87" y="326.58" width="20.47" height="20.47" rx="8.34" ry="8.34" transform="translate(485.6 -23.53) rotate(78.02)"/><rect class="cls-2" x="266.02" y="340.96" width="20.47" height="20.47" rx="8.34" ry="8.34" transform="translate(514.05 -29.9) rotate(78.02)"/><rect class="cls-2" x="284.18" y="355.33" width="20.47" height="20.47" rx="8.34" ry="8.34" transform="translate(542.5 -36.27) rotate(78.02)"/><rect class="cls-2" x="302.34" y="369.71" width="20.47" height="20.47" rx="8.34" ry="8.34" transform="translate(570.96 -42.64) rotate(78.02)"/><rect class="cls-2" x="320.5" y="384.08" width="20.47" height="20.47" rx="8.34" ry="8.34" transform="translate(599.41 -49.01) rotate(78.02)"/><rect class="cls-2" x="338.65" y="398.46" width="20.47" height="20.47" rx="8.34" ry="8.34" transform="translate(627.86 -55.38) rotate(78.02)"/><rect class="cls-2" x="356.81" y="412.83" width="20.47" height="20.47" rx="8.34" ry="8.34" transform="translate(656.31 -61.75) rotate(78.02)"/><rect class="cls-2" x="227.44" y="300.1" width="20.47" height="20.47" rx="8.34" ry="8.34" transform="translate(443.51 -24.53) rotate(78.02)"/><rect class="cls-2" x="247.11" y="312.96" width="20.47" height="20.47" rx="8.34" ry="8.34" transform="translate(471.68 -33.58) rotate(78.02)"/><rect class="cls-2" x="265.27" y="327.34" width="20.47" height="20.47" rx="8.34" ry="8.34" transform="translate(500.13 -39.95) rotate(78.02)"/><rect class="cls-2" x="283.42" y="341.71" width="20.47" height="20.47" rx="8.34" ry="8.34" transform="translate(528.58 -46.32) rotate(78.02)"/><rect class="cls-2" x="301.58" y="356.09" width="20.47" height="20.47" rx="8.34" ry="8.34" transform="translate(557.03 -52.69) rotate(78.02)"/><rect class="cls-2" x="319.74" y="370.46" width="20.47" height="20.47" rx="8.34" ry="8.34" transform="translate(585.49 -59.06) rotate(78.02)"/><rect class="cls-2" x="337.9" y="384.84" width="20.47" height="20.47" rx="8.34" ry="8.34" transform="translate(613.94 -65.43) rotate(78.02)"/><rect class="cls-2" x="356.06" y="399.21" width="20.47" height="20.47" rx="8.34" ry="8.34" transform="translate(642.39 -71.8) rotate(78.02)"/><rect class="cls-2" x="374.21" y="413.59" width="20.47" height="20.47" rx="8.34" ry="8.34" transform="translate(670.84 -78.17) rotate(78.02)"/><rect class="cls-2" x="235.8" y="289.74" width="22.52" height="22.52" rx="8.34" ry="8.34" transform="translate(441.81 -41.11) rotate(78.02)"/><path class="cls-2" d="M244.4,290l-2.26-9.69c-.79-3.39,1.61-6.76,5.35-7.48l10.66-2.06c3.73-.72,7.44,1.47,8.23,4.86l2.26,9.69c.79,3.39-1.61,6.76-5.35,7.48l-10.66,2.06C248.89,295.61,245.19,293.42,244.4,290Z" transform="translate(-48.43 -37.97)"/><rect class="cls-2" x="255.78" y="305.55" width="22.52" height="22.52" rx="8.34" ry="8.34" transform="translate(473.11 -48.12) rotate(78.02)"/><rect class="cls-2" x="275.75" y="321.37" width="22.52" height="22.52" rx="8.34" ry="8.34" transform="translate(504.41 -55.13) rotate(78.02)"/><rect class="cls-2" x="295.72" y="337.18" width="22.52" height="22.52" rx="8.34" ry="8.34" transform="translate(535.71 -62.14) rotate(78.02)"/><rect class="cls-2" x="315.7" y="352.99" width="22.52" height="22.52" rx="8.34" ry="8.34" transform="translate(567 -69.14) rotate(78.02)"/><rect class="cls-2" x="335.67" y="368.8" width="22.52" height="22.52" rx="8.34" ry="8.34" transform="translate(598.3 -76.15) rotate(78.02)"/><rect class="cls-2" x="355.64" y="384.62" width="22.52" height="22.52" rx="8.34" ry="8.34" transform="translate(629.6 -83.16) rotate(78.02)"/><rect class="cls-2" x="375.62" y="400.43" width="22.52" height="22.52" rx="8.34" ry="8.34" transform="translate(660.89 -90.17) rotate(78.02)"/><rect class="cls-2" x="387.95" y="409.05" width="22.52" height="22.52" rx="8.34" ry="8.34" transform="translate(679.1 -95.39) rotate(78.02)"/><path class="cls-2" d="M256.5,301.37l-2.26-9.69c-.79-3.39,1.61-6.76,5.35-7.48l10.66-2.06c3.73-.72,7.44,1.47,8.23,4.86l2.26,9.69c.79,3.39-1.61,6.76-5.35,7.48l-10.66,2.06C261,307,257.3,304.77,256.5,301.37Z" transform="translate(-48.43 -37.97)"/><path class="cls-2" d="M273.45,317.94l-2.26-9.69c-.79-3.39,1.61-6.76,5.35-7.48l10.66-2.06c3.73-.72,7.44,1.47,8.23,4.86l2.26,9.69c.79,3.39-1.61,6.76-5.35,7.48l-10.66,2.06C277.94,323.52,274.24,321.34,273.45,317.94Z" transform="translate(-48.43 -37.97)"/><path class="cls-2" d="M293.42,334.51l-2.26-9.69c-.79-3.39,1.61-6.76,5.35-7.48l10.66-2.06c3.73-.72,7.44,1.47,8.23,4.86l2.26,9.69c.79,3.39-1.61,6.76-5.35,7.48l-10.66,2.06C297.92,340.09,294.22,337.91,293.42,334.51Z" transform="translate(-48.43 -37.97)"/><path class="cls-2" d="M313.4,351.08l-2.26-9.69c-.79-3.39,1.61-6.76,5.35-7.48l10.66-2.06c3.73-.72,7.44,1.47,8.23,4.86l2.26,9.69c.79,3.39-1.61,6.76-5.35,7.48l-10.66,2.06C317.89,356.66,314.19,354.47,313.4,351.08Z" transform="translate(-48.43 -37.97)"/><path class="cls-2" d="M333.37,367.65,331.11,358c-.79-3.39,1.61-6.76,5.35-7.48l10.66-2.06c3.73-.72,7.44,1.47,8.23,4.86L357.6,363c.79,3.39-1.61,6.76-5.35,7.48l-10.66,2.06C337.87,373.23,334.16,371,333.37,367.65Z" transform="translate(-48.43 -37.97)"/><path class="cls-2" d="M353.34,382.71,351.08,373c-.79-3.39,1.61-6.76,5.35-7.48l10.66-2.06c3.73-.72,7.44,1.47,8.23,4.86l2.26,9.69c.79,3.39-1.61,6.76-5.35,7.48l-10.66,2.06C357.84,388.29,354.14,386.1,353.34,382.71Z" transform="translate(-48.43 -37.97)"/><path class="cls-2" d="M372.56,397.76l-2.26-9.69c-.79-3.39,1.61-6.76,5.35-7.48l10.66-2.06c3.73-.72,7.44,1.47,8.23,4.86l2.26,9.69c.79,3.39-1.61,6.76-5.35,7.48l-10.66,2.06C377.06,403.34,373.35,401.15,372.56,397.76Z" transform="translate(-48.43 -37.97)"/><path class="cls-2" d="M393.29,412.82,391,403.13c-.79-3.39,1.61-6.76,5.35-7.48L407,393.59a6.89,6.89,0,0,1,8.23,5.62l2.26,9.69c.79,2.64-1.61,6-5.35,6.72l-10.66,2.06C397.79,418.4,394.08,416.21,393.29,412.82Z" transform="translate(-48.43 -37.97)"/><path class="cls-2" d="M282.51,287.44a2,2,0,0,1-.93,3.3l-5.17,1.31-5.17,1.31a2,2,0,0,1-2.39-2.46l1.45-5.13,1.45-5.13a2,2,0,0,1,3.33-.84l3.72,3.82Z" transform="translate(-48.43 -37.97)"/><path class="cls-2" d="M260.62,268.59a1.32,1.32,0,0,1-.62,2.19l-6.29,1.6-6.29,1.6a1.32,1.32,0,0,1-1.59-1.63l1.76-6.24,1.76-6.24a1.32,1.32,0,0,1,2.21-.56l4.53,4.65Z" transform="translate(-48.43 -37.97)"/><path class="cls-2" d="M297.54,301.7a2.07,2.07,0,0,1-1,3.45l-5,1.28-5,1.28a2.07,2.07,0,0,1-2.5-2.57l1.41-5,1.41-5a2.07,2.07,0,0,1,3.47-.88l3.61,3.71Z" transform="translate(-48.43 -37.97)"/><path class="cls-2" d="M318.82,321.37a2.11,2.11,0,0,1-.66,3.59l-4.82,1.71-4.82,1.71a2.11,2.11,0,0,1-2.78-2.37l.93-5,.93-5a2.11,2.11,0,0,1,3.44-1.22l3.89,3.32Z" transform="translate(-48.43 -37.97)"/><path class="cls-2" d="M341.31,340.75a1.69,1.69,0,0,1-.53,2.88l-5.5,1.95-5.5,1.95a1.69,1.69,0,0,1-2.23-1.9l1.06-5.74,1.06-5.74a1.69,1.69,0,0,1,2.76-1l4.44,3.79Z" transform="translate(-48.43 -37.97)"/><path class="cls-2" d="M362.19,358.76a2.5,2.5,0,0,1-.79,4.25l-4.18,1.48L353,366a2.5,2.5,0,0,1-3.29-2.81l.81-4.36.81-4.36a2.5,2.5,0,0,1,4.08-1.44l3.38,2.88Z" transform="translate(-48.43 -37.97)"/><path class="cls-2" d="M384.19,374.47a2,2,0,0,1-.29,3.38L379,380.13l-4.87,2.28a2,2,0,0,1-2.78-1.94l.46-5.36.46-5.36a2,2,0,0,1,3.07-1.44l4.41,3.08Z" transform="translate(-48.43 -37.97)"/><path class="cls-2" d="M403,388.76a2,2,0,0,1-.3,3.53l-4.73,2.22-4.73,2.22a2,2,0,0,1-2.9-2l.45-5.2.45-5.2a2,2,0,0,1,3.21-1.5l4.28,3Z" transform="translate(-48.43 -37.97)"/><path class="cls-2" d="M267.44,271.6a1.94,1.94,0,0,1-.91,3.23l-5.24,1.33L256,277.49a1.94,1.94,0,0,1-2.34-2.4l1.47-5.21,1.47-5.21a1.94,1.94,0,0,1,3.25-.83l3.78,3.88Z" transform="translate(-48.43 -37.97)"/><path class="cls-2" d="M289.87,294a1.53,1.53,0,0,1-.72,2.55l-5.92,1.5-5.92,1.5a1.53,1.53,0,0,1-1.85-1.9l1.66-5.88,1.66-5.88a1.53,1.53,0,0,1,2.57-.65l4.27,4.38Z" transform="translate(-48.43 -37.97)"/><path class="cls-2" d="M308.07,312.15a2.23,2.23,0,0,1-.7,3.8l-4.62,1.64-4.62,1.64a2.23,2.23,0,0,1-2.94-2.51l.89-4.82.89-4.82a2.23,2.23,0,0,1,3.64-1.29l3.73,3.18Z" transform="translate(-48.43 -37.97)"/><path class="cls-2" d="M331.32,332.3a1.81,1.81,0,0,1-.57,3.08l-5.31,1.88-5.31,1.88a1.81,1.81,0,0,1-2.38-2l1-5.54,1-5.54a1.81,1.81,0,0,1,3-1l4.28,3.66Z" transform="translate(-48.43 -37.97)"/><path class="cls-2" d="M351.54,348.77a2,2,0,0,1-.62,3.35l-5.05,1.79-5.05,1.79a2,2,0,0,1-2.59-2.21l1-5.27,1-5.27a2,2,0,0,1,3.21-1.14l4.08,3.48Z" transform="translate(-48.43 -37.97)"/><path class="cls-2" d="M374.25,366.83a2,2,0,0,1-.3,3.5l-4.75,2.23-4.75,2.23a2,2,0,0,1-2.88-2l.45-5.23.45-5.23a2,2,0,0,1,3.18-1.49l4.3,3Z" transform="translate(-48.43 -37.97)"/><path class="cls-2" d="M392.84,381a2.26,2.26,0,0,1-.33,3.89l-4.4,2.06-4.4,2.06a2.26,2.26,0,0,1-3.21-2.24l.41-4.84.41-4.84a2.26,2.26,0,0,1,3.54-1.66l4,2.78Z" transform="translate(-48.43 -37.97)"/><path class="cls-2" d="M414.62,396.53a1.84,1.84,0,0,1-.27,3.17l-5.05,2.37-5.05,2.37a1.84,1.84,0,0,1-2.61-1.82l.48-5.56.48-5.56a1.84,1.84,0,0,1,2.88-1.35l4.58,3.19Z" transform="translate(-48.43 -37.97)"/><path class="cls-2" d="M423.35,400.9a1.84,1.84,0,0,1-.27,3.17L418,406.43,413,408.8a1.84,1.84,0,0,1-2.61-1.82l.48-5.56.48-5.56a1.84,1.84,0,0,1,2.88-1.35l4.58,3.19Z" transform="translate(-48.43 -37.97)"/><path class="cls-2" d="M260.46,263.11a2.07,2.07,0,0,1-1,3.45l-5,1.27-5,1.27a2.07,2.07,0,0,1-2.5-2.57l1.41-5,1.41-5a2.07,2.07,0,0,1,3.48-.88l3.61,3.71Z" transform="translate(-48.43 -37.97)"/><path class="cls-2" d="M275.06,279.23a1.89,1.89,0,0,1-.89,3.15l-5.33,1.35-5.33,1.35a1.89,1.89,0,0,1-2.28-2.34l1.49-5.29,1.49-5.29a1.89,1.89,0,0,1,3.17-.8l3.84,3.94Z" transform="translate(-48.43 -37.97)"/><path class="cls-2" d="M438.46,451.21c-24.11,64.89-115,37.81-116.55,37.62-1,.19,84.52-8.17,95.44-50.15" transform="translate(-48.43 -37.97)"/><path class="cls-3" d="M573.28,152.81" transform="translate(-48.43 -37.97)"/><path class="cls-2" d="M723.81,233.27C751.24,155.57,691.26,106.81,693,109c1.4.95,48.76,18.54,63.58,92.32,10.27,49.53,6.47,33,8.6,43.05" transform="translate(-48.43 -37.97)"/><path class="cls-2" d="M629.16,459.22c26.41,72,162.71,67.06,160.88,67.13-2.7,1-199.56,64.72-221.68-49.69" transform="translate(-48.43 -37.97)"/><path class="cls-2" d="M595.85,470.86c24,72.83,160.39,72.43,158.57,72.44-2.73.92-201.6,58.05-219.91-57" transform="translate(-48.43 -37.97)"/><path class="cls-2" d="M534.93,369.4C692.11,303,755,193,677.26,117c26.2,22.7,74.22,54.14,58.5,119.63C725.36,280,660.49,323.62,565,394" transform="translate(-48.43 -37.97)"/><path class="cls-2" d="M741.27,230.65c27.44-77.7-32.54-126.45-30.84-124.23,1.4.95,48.76,18.54,63.58,92.32,10.27,49.53,6.47,33,8.6,43.05" transform="translate(-48.43 -37.97)"/><path class="cls-2" d="M745.09,231.86c44.3-68.68-3.05-127.8-2.56-126.85,1.21,1.19,43.58,24.93,44.89,100.17,1.19,50.57.43,33.61.72,43.9" transform="translate(-48.43 -37.97)"/><path class="cls-2" d="M754.64,237.66c51.21-63.69,14.78-131.55,15.17-130.55C770.88,108.41,809.55,132,803,207c-4.08,50.42-3.08,33.47-3.86,43.74" transform="translate(-48.43 -37.97)"/><path class="cls-2" d="M764.23,233.72c39-22.42,41-126.3,41.27-125.25.85,1.46,28.91,43.52,15.22,103.25-1.61,7.88-3,21.61-18.24,46" transform="translate(-48.43 -37.97)"/><path class="cls-2" d="M781.23,245c38.7-21.82,41.26-132.25,41.48-131.21.86,1.45,30.18,38.8,14.66,110-11.72,48.45-20.45,50-22.78,59.9" transform="translate(-48.43 -37.97)"/><path class="cls-2" d="M794.39,266.82c52.24-42.11,46.87-132.89,47.34-133.55,0,0,35.16,35.44,8.32,114.27-18.89,46.13-27.76,46.37-31.56,55.78" transform="translate(-48.43 -37.97)"/><path class="cls-2" d="M808.74,294.73C868.07,263.38,863.37,146.8,864,146.25c0,0,13.52,19.16,14.28,23.7,0,0,22.7,51.45-9.84,115.76-35.56,52.2-56.36,48.52-61.88,57" transform="translate(-48.43 -37.97)"/><path class="cls-2" d="M811.81,318.57c71.72-35.13,72.55-148.84,73.13-149.22,0,0,39.44,57.34-19.57,146.61-44.15,45.17-62.67,38-69.6,45.39" transform="translate(-48.43 -37.97)"/><path class="cls-2" d="M800.31,350.77C914.55,297,899.71,188,900.46,187.65c0,0,56.46,119.23-29.79,166.14-31,10.59-90,26.48-90,26.48" transform="translate(-48.43 -37.97)"/><path class="cls-2" d="M781.06,371.5c101,2.72,144.44-108.58,143.52-107-.59,2.82,31.78,65.11-53.76,125C799.4,437.75,765.51,433.23,707,425.56" transform="translate(-48.43 -37.97)"/><path class="cls-2" d="M753.31,397.84c68.35,34.78,173.34-61.45,172.22-59.53-1.29,2.58,7.36,71.05-90.61,107.2-61.85,15.72-93,11.59-134.33-5.29" transform="translate(-48.43 -37.97)"/><path class="cls-2" d="M728.75,416.23C788,465,908.35,399.79,906.81,400.77c-1.82,2.24-5.23,65.56-108.7,79.66-63.79,2-93.29-8.8-130-34.23" transform="translate(-48.43 -37.97)"/><path class="cls-2" d="M704.48,431.51c41.19,64.68,168.11,31.85,166.35,32.31-2.42,1.57-23.4,65.41-126.15,46.76-61.26-17.89-75.46-19-102.49-54.55" transform="translate(-48.43 -37.97)"/><path class="cls-2" d="M686.79,439.14c26.41,72,162.71,67.06,160.88,67.13C845,507.28,648.12,571,626,456.57" transform="translate(-48.43 -37.97)"/><path class="cls-2" d="M715.08,270.67c29.66-23.56,29.32-53.1,28.76-60.18a.48.48,0,0,1,.86-.34c3.16,4,11.86,17.78,1.49,50.22-8.07,25.81-5.55,17.09-7.17,22.35" transform="translate(-48.43 -37.97)"/><path class="cls-2" d="M724.7,279c21.55-10.7,27.62-66.07,27.7-65.51.41.81,12.4,24.16,3.16,55.6-1.11,4.15-2.33,11.43-11.22,24" transform="translate(-48.43 -37.97)"/><path class="cls-2" d="M733.87,287.77C755,277,758.94,218.07,759,218.63c.43.8,15.23,21.41,5.31,59.11C757,303.35,752.28,304,750.8,309.21" transform="translate(-48.43 -37.97)"/><path class="cls-2" d="M741.48,296.13c27.93-22.52,25.06-71,25.31-71.4,0,0,18.8,19,4.45,61.09-10.1,24.66-14.84,24.79-16.87,29.82" transform="translate(-48.43 -37.97)"/><path class="cls-2" d="M746.82,309.19c31.72-16.76,29.2-80.71,29.52-81,0,0,7.23,11.86,7.63,14.29,0,0,12.14,27.51-5.26,61.89-19,27.91-30.13,25.94-33.09,30.49" transform="translate(-48.43 -37.97)"/><path class="cls-2" d="M748.46,321.93c38.34-18.78,38.79-79.58,39.1-79.78,0,0,21.09,30.66-10.46,78.39-23.61,24.15-33.51,20.31-37.21,24.27" transform="translate(-48.43 -37.97)"/><path class="cls-2" d="M742.31,339.15c61.08-28.72,53.15-87,53.55-87.21,0,0,30.19,63.75-15.93,88.83-16.58,5.66-48.14,14.16-48.14,14.16" transform="translate(-48.43 -37.97)"/><path class="cls-4" d="M615.33,260.36" transform="translate(-48.43 -37.97)"/><path class="cls-4" d="M716.62,273.42" transform="translate(-48.43 -37.97)"/><path class="cls-2" d="M732,350.23c54,1.45,77.23-58.05,76.74-57.21-.32,1.51,17,34.81-28.74,66.83-38.18,25.8-56.31,23.39-87.6,19.29" transform="translate(-48.43 -37.97)"/><path class="cls-2" d="M717.18,364.31c36.54,18.59,91.15-32.52,90.46-31.83-.69,1.38,5.55,38-46.82,57.31C727.75,398.21,711.1,396,689,387" transform="translate(-48.43 -37.97)"/><path class="cls-2" d="M700.27,374.91c31.65,26.06,97.54-2.74,96.71-2.22-1,1.2-6.58,26.73-61.9,34.27-34.1,1.05-42.31-1.68-61.94-15.27" transform="translate(-48.43 -37.97)"/><path class="cls-2" d="M691.08,380.8c22,34.58,89.88,17,88.94,17.27-1.29.84-12.51,35-67.44,25-32.75-9.56-40.35-10.16-54.8-29.16" transform="translate(-48.43 -37.97)"/><path class="cls-2" d="M673.75,388.44c14.12,38.49,87,33.59,86,33.62-1.44.54-29,33.42-80.51,11.93-29.95-16.35-24.18-10.79-34.23-32.44" transform="translate(-48.43 -37.97)"/><path class="cls-2" d="M646.46,400.48c7.47,40.31,92.62,41.6,91.65,41.48-1.51.29-88.36,31.38-116.94-31.68" transform="translate(-48.43 -37.97)"/><path class="cls-2" d="M622.19,410.16c10.92,42,90.63,42.2,89.67,42-1.53.19-92.44,31.05-116.55-33.84" transform="translate(-48.43 -37.97)"/><path class="cls-2" d="M565.16,438.12c24.11,64.89,115,37.81,116.55,37.62,1,.19-81-3.8-91.94-45.79" transform="translate(-48.43 -37.97)"/><path class="cls-2" d="M575.63,425.89c24.11,64.89,115,37.81,116.55,37.62,1,.19-81-3.8-91.94-45.79" transform="translate(-48.43 -37.97)"/><path class="cls-4" d="M712.58,309,645,377.37m46.53-59.31,52.17-21.18" transform="translate(-48.43 -37.97)"/><path class="cls-4" d="M716.71,273.22" transform="translate(-48.43 -37.97)"/><path class="cls-4" d="M731.49,315.82m-67.55,68.36,46.53-59.31,52.17-21.18" transform="translate(-48.43 -37.97)"/><path class="cls-4" d="M750.41,322.63,682.85,391m46.53-59.31,52.17-21.18" transform="translate(-48.43 -37.97)"/><path class="cls-4" d="M769.32,329.44,701.77,397.8m46.53-59.31,52.17-21.18" transform="translate(-48.43 -37.97)"/><rect class="cls-2" x="724.5" y="326.72" width="18.42" height="18.42" rx="8.34" ry="8.34" transform="translate(1166.15 -350.08) rotate(101.98)"/><rect class="cls-2" x="718.45" y="336.55" width="18.42" height="18.42" rx="8.34" ry="8.34" transform="translate(1168.46 -332.28) rotate(101.98)"/><rect class="cls-2" x="707.4" y="345.71" width="18.42" height="18.42" rx="8.34" ry="8.34" transform="translate(1164.08 -310.42) rotate(101.98)"/><rect class="cls-2" x="692.57" y="356.38" width="18.42" height="18.42" rx="8.34" ry="8.34" transform="translate(1156.61 -283.03) rotate(101.98)"/><rect class="cls-2" x="676.23" y="369.31" width="18.42" height="18.42" rx="8.34" ry="8.34" transform="translate(1149.53 -251.42) rotate(101.98)"/><rect class="cls-2" x="659.89" y="382.25" width="18.42" height="18.42" rx="8.34" ry="8.34" transform="translate(1142.45 -219.82) rotate(101.98)"/><rect class="cls-2" x="643.55" y="395.19" width="18.42" height="18.42" rx="8.34" ry="8.34" transform="translate(1135.38 -188.21) rotate(101.98)"/><rect class="cls-2" x="632.5" y="402.83" width="18.42" height="18.42" rx="8.34" ry="8.34" transform="translate(1129.51 -168.17) rotate(101.98)"/><rect class="cls-2" x="621.91" y="411.91" width="18.42" height="18.42" rx="8.34" ry="8.34" transform="translate(1125.6 -146.85) rotate(101.98)"/><rect class="cls-2" x="729.86" y="309.59" width="20.47" height="20.47" rx="8.34" ry="8.34" transform="translate(1158.1 -375.77) rotate(101.98)"/><rect class="cls-2" x="711.71" y="323.96" width="20.47" height="20.47" rx="8.34" ry="8.34" transform="translate(1150.24 -340.65) rotate(101.98)"/><rect class="cls-2" x="693.55" y="338.34" width="20.47" height="20.47" rx="8.34" ry="8.34" transform="translate(1142.38 -305.53) rotate(101.98)"/><rect class="cls-2" x="675.39" y="352.71" width="20.47" height="20.47" rx="8.34" ry="8.34" transform="translate(1134.51 -270.41) rotate(101.98)"/><rect class="cls-2" x="657.23" y="367.09" width="20.47" height="20.47" rx="8.34" ry="8.34" transform="translate(1126.65 -235.29) rotate(101.98)"/><rect class="cls-2" x="639.07" y="381.46" width="20.47" height="20.47" rx="8.34" ry="8.34" transform="translate(1118.79 -200.17) rotate(101.98)"/><rect class="cls-2" x="620.92" y="395.84" width="20.47" height="20.47" rx="8.34" ry="8.34" transform="translate(1110.92 -165.05) rotate(101.98)"/><rect class="cls-2" x="602.76" y="410.21" width="20.47" height="20.47" rx="8.34" ry="8.34" transform="translate(1103.06 -129.93) rotate(101.98)"/><rect class="cls-2" x="732.13" y="297.48" width="20.47" height="20.47" rx="8.34" ry="8.34" transform="translate(1149 -392.61) rotate(101.98)"/><rect class="cls-2" x="712.46" y="310.34" width="20.47" height="20.47" rx="8.34" ry="8.34" transform="translate(1137.83 -357.84) rotate(101.98)"/><rect class="cls-2" x="694.3" y="324.72" width="20.47" height="20.47" rx="8.34" ry="8.34" transform="translate(1129.97 -322.72) rotate(101.98)"/><rect class="cls-2" x="676.15" y="339.09" width="20.47" height="20.47" rx="8.34" ry="8.34" transform="translate(1122.1 -287.6) rotate(101.98)"/><rect class="cls-2" x="657.99" y="353.47" width="20.47" height="20.47" rx="8.34" ry="8.34" transform="translate(1114.24 -252.48) rotate(101.98)"/><rect class="cls-2" x="639.83" y="367.84" width="20.47" height="20.47" rx="8.34" ry="8.34" transform="translate(1106.38 -217.36) rotate(101.98)"/><rect class="cls-2" x="621.67" y="382.22" width="20.47" height="20.47" rx="8.34" ry="8.34" transform="translate(1098.51 -182.24) rotate(101.98)"/><rect class="cls-2" x="603.52" y="396.59" width="20.47" height="20.47" rx="8.34" ry="8.34" transform="translate(1090.65 -147.12) rotate(101.98)"/><rect class="cls-2" x="585.36" y="410.97" width="20.47" height="20.47" rx="8.34" ry="8.34" transform="translate(1082.79 -112) rotate(101.98)"/><rect class="cls-2" x="721.72" y="287.12" width="22.52" height="22.52" rx="8.34" ry="8.34" transform="translate(1128.53 -394.7) rotate(101.98)"/><path class="cls-2" d="M735.65,287.41l2.26-9.69c.79-3.39-1.61-6.76-5.35-7.48l-10.66-2.06c-3.73-.72-7.44,1.47-8.23,4.86l-2.26,9.69c-.79,3.39,1.61,6.76,5.35,7.48l10.66,2.06C731.15,293,734.85,290.8,735.65,287.41Z" transform="translate(-48.43 -37.97)"/><rect class="cls-2" x="701.75" y="302.94" width="22.52" height="22.52" rx="8.34" ry="8.34" transform="translate(1119.88 -356.07) rotate(101.98)"/><rect class="cls-2" x="681.78" y="318.75" width="22.52" height="22.52" rx="8.34" ry="8.34" transform="translate(1111.23 -317.44) rotate(101.98)"/><rect class="cls-2" x="661.8" y="334.56" width="22.52" height="22.52" rx="8.34" ry="8.34" transform="translate(1102.58 -278.8) rotate(101.98)"/><rect class="cls-2" x="641.83" y="350.37" width="22.52" height="22.52" rx="8.34" ry="8.34" transform="translate(1093.93 -240.17) rotate(101.98)"/><rect class="cls-2" x="621.85" y="366.18" width="22.52" height="22.52" rx="8.34" ry="8.34" transform="translate(1085.28 -201.54) rotate(101.98)"/><rect class="cls-2" x="601.88" y="382" width="22.52" height="22.52" rx="8.34" ry="8.34" transform="translate(1076.64 -162.91) rotate(101.98)"/><rect class="cls-2" x="581.91" y="397.81" width="22.52" height="22.52" rx="8.34" ry="8.34" transform="translate(1067.99 -124.28) rotate(101.98)"/><rect class="cls-2" x="569.58" y="406.43" width="22.52" height="22.52" rx="8.34" ry="8.34" transform="translate(1061.53 -101.8) rotate(101.98)"/><path class="cls-2" d="M723.54,298.75l2.26-9.69c.79-3.39-1.61-6.76-5.35-7.48l-10.66-2.06c-3.73-.72-7.44,1.47-8.23,4.86l-2.26,9.69c-.79,3.39,1.61,6.76,5.35,7.48l10.66,2.06C719,304.34,722.75,302.15,723.54,298.75Z" transform="translate(-48.43 -37.97)"/><path class="cls-2" d="M706.59,315.32l2.26-9.69c.79-3.39-1.61-6.76-5.35-7.48l-10.66-2.06c-3.73-.72-7.44,1.47-8.23,4.86l-2.26,9.69c-.79,3.39,1.61,6.76,5.35,7.48l10.66,2.06C702.1,320.9,705.8,318.72,706.59,315.32Z" transform="translate(-48.43 -37.97)"/><path class="cls-2" d="M686.62,331.89l2.26-9.69c.79-3.39-1.61-6.76-5.35-7.48l-10.66-2.06c-3.73-.72-7.44,1.47-8.23,4.86l-2.26,9.69c-.79,3.39,1.61,6.76,5.35,7.48l10.66,2.06C682.13,337.47,685.83,335.29,686.62,331.89Z" transform="translate(-48.43 -37.97)"/><path class="cls-2" d="M666.65,348.46l2.26-9.69c.79-3.39-1.61-6.76-5.35-7.48l-10.66-2.06c-3.73-.72-7.44,1.47-8.23,4.86l-2.26,9.69c-.79,3.39,1.61,6.76,5.35,7.48l10.66,2.06C662.15,354,665.85,351.85,666.65,348.46Z" transform="translate(-48.43 -37.97)"/><path class="cls-2" d="M646.67,365l2.26-9.69c.79-3.39-1.61-6.76-5.35-7.48l-10.66-2.06c-3.73-.72-7.44,1.47-8.23,4.86l-2.26,9.69c-.79,3.39,1.61,6.76,5.35,7.48l10.66,2.06C642.18,370.61,645.88,368.42,646.67,365Z" transform="translate(-48.43 -37.97)"/><path class="cls-2" d="M626.7,380.09,629,370.4c.79-3.39-1.61-6.76-5.35-7.48L613,360.86c-3.73-.72-7.44,1.47-8.23,4.86l-2.26,9.69c-.79,3.39,1.61,6.76,5.35,7.48l10.66,2.06C622.2,385.67,625.91,383.48,626.7,380.09Z" transform="translate(-48.43 -37.97)"/><path class="cls-2" d="M607.48,395.14l2.26-9.69c.79-3.39-1.61-6.76-5.35-7.48l-10.66-2.06c-3.73-.72-7.44,1.47-8.23,4.86l-2.26,9.69c-.79,3.39,1.61,6.76,5.35,7.48L599.25,400C603,400.72,606.69,398.54,607.48,395.14Z" transform="translate(-48.43 -37.97)"/><path class="cls-2" d="M586.75,410.2l2.26-9.69c.79-3.39-1.61-6.76-5.35-7.48L573,391a6.89,6.89,0,0,0-8.23,5.62l-2.26,9.69c-.79,2.64,1.61,6,5.35,6.72l10.66,2.06C582.26,415.78,586,413.59,586.75,410.2Z" transform="translate(-48.43 -37.97)"/><path class="cls-2" d="M697.53,284.82a2,2,0,0,0,.93,3.3l5.17,1.31,5.17,1.31a2,2,0,0,0,2.39-2.46l-1.45-5.13L708.3,278a2,2,0,0,0-3.33-.84L701.25,281Z" transform="translate(-48.43 -37.97)"/><path class="cls-2" d="M719.42,266a1.32,1.32,0,0,0,.62,2.19l6.29,1.6,6.29,1.6a1.32,1.32,0,0,0,1.59-1.63l-1.76-6.24-1.76-6.24a1.32,1.32,0,0,0-2.21-.56l-4.53,4.65Z" transform="translate(-48.43 -37.97)"/><path class="cls-2" d="M682.51,299.08a2.07,2.07,0,0,0,1,3.45l5,1.28,5,1.28a2.07,2.07,0,0,0,2.5-2.57l-1.41-5-1.41-5a2.07,2.07,0,0,0-3.47-.88l-3.61,3.71Z" transform="translate(-48.43 -37.97)"/><path class="cls-2" d="M661.22,318.75a2.11,2.11,0,0,0,.66,3.59l4.82,1.71,4.82,1.71a2.11,2.11,0,0,0,2.78-2.37l-.93-5-.93-5a2.11,2.11,0,0,0-3.44-1.22l-3.89,3.32Z" transform="translate(-48.43 -37.97)"/><path class="cls-2" d="M638.73,338.13a1.69,1.69,0,0,0,.53,2.88l5.5,1.95,5.5,1.95a1.69,1.69,0,0,0,2.23-1.9l-1.06-5.74-1.06-5.74a1.69,1.69,0,0,0-2.76-1l-4.44,3.79Z" transform="translate(-48.43 -37.97)"/><path class="cls-2" d="M617.85,356.14a2.5,2.5,0,0,0,.79,4.25l4.18,1.48,4.18,1.48a2.5,2.5,0,0,0,3.29-2.81l-.81-4.36-.81-4.36a2.5,2.5,0,0,0-4.08-1.44l-3.38,2.88Z" transform="translate(-48.43 -37.97)"/><path class="cls-2" d="M595.86,371.85a2,2,0,0,0,.29,3.38l4.87,2.28,4.87,2.28a2,2,0,0,0,2.78-1.94l-.46-5.36-.46-5.36a2,2,0,0,0-3.07-1.44l-4.41,3.08Z" transform="translate(-48.43 -37.97)"/><path class="cls-2" d="M577.07,386.14a2,2,0,0,0,.3,3.53l4.73,2.22,4.73,2.22a2,2,0,0,0,2.9-2l-.45-5.2-.45-5.2a2,2,0,0,0-3.21-1.5l-4.28,3Z" transform="translate(-48.43 -37.97)"/><path class="cls-2" d="M712.61,269a1.94,1.94,0,0,0,.91,3.23l5.24,1.33,5.24,1.33a1.94,1.94,0,0,0,2.34-2.4l-1.47-5.21-1.47-5.21a1.94,1.94,0,0,0-3.25-.83l-3.78,3.88Z" transform="translate(-48.43 -37.97)"/><path class="cls-2" d="M690.18,291.43a1.53,1.53,0,0,0,.72,2.55l5.92,1.5,5.92,1.5a1.53,1.53,0,0,0,1.85-1.9l-1.66-5.88-1.66-5.88a1.53,1.53,0,0,0-2.57-.65L694.44,287Z" transform="translate(-48.43 -37.97)"/><path class="cls-2" d="M672,309.53a2.23,2.23,0,0,0,.7,3.8L677.3,315l4.62,1.64a2.23,2.23,0,0,0,2.94-2.51l-.89-4.82-.89-4.82a2.23,2.23,0,0,0-3.64-1.29l-3.73,3.18Z" transform="translate(-48.43 -37.97)"/><path class="cls-2" d="M648.72,329.68a1.81,1.81,0,0,0,.57,3.08l5.31,1.88,5.31,1.88a1.81,1.81,0,0,0,2.38-2l-1-5.54-1-5.54a1.81,1.81,0,0,0-3-1L653,326Z" transform="translate(-48.43 -37.97)"/><path class="cls-2" d="M628.5,346.15a2,2,0,0,0,.62,3.35l5.05,1.79,5.05,1.79a2,2,0,0,0,2.59-2.21l-1-5.27-1-5.27a2,2,0,0,0-3.21-1.14l-4.08,3.48Z" transform="translate(-48.43 -37.97)"/><path class="cls-2" d="M605.8,364.21a2,2,0,0,0,.3,3.5l4.75,2.23,4.75,2.23a2,2,0,0,0,2.88-2l-.45-5.23-.45-5.23a2,2,0,0,0-3.18-1.49l-4.3,3Z" transform="translate(-48.43 -37.97)"/><path class="cls-2" d="M587.2,378.36a2.26,2.26,0,0,0,.33,3.89l4.4,2.06,4.4,2.06a2.26,2.26,0,0,0,3.21-2.24l-.41-4.84-.41-4.84a2.26,2.26,0,0,0-3.54-1.66l-4,2.78Z" transform="translate(-48.43 -37.97)"/><path class="cls-2" d="M565.43,393.91a1.84,1.84,0,0,0,.27,3.17l5.05,2.37,5.05,2.37a1.84,1.84,0,0,0,2.61-1.82l-.48-5.56-.48-5.56a1.84,1.84,0,0,0-2.88-1.35L570,390.72Z" transform="translate(-48.43 -37.97)"/><path class="cls-2" d="M719.58,260.49a2.07,2.07,0,0,0,1,3.45l5,1.27,5,1.27a2.07,2.07,0,0,0,2.5-2.57l-1.41-5-1.41-5a2.07,2.07,0,0,0-3.48-.88l-3.61,3.71Z" transform="translate(-48.43 -37.97)"/><path class="cls-2" d="M705,276.61a1.89,1.89,0,0,0,.89,3.15l5.33,1.35,5.33,1.35a1.89,1.89,0,0,0,2.28-2.34l-1.49-5.29-1.49-5.29a1.89,1.89,0,0,0-3.17-.8l-3.84,3.94Z" transform="translate(-48.43 -37.97)"/><path class="cls-2" d="M541.58,448.59c24.11,64.89,115,37.81,116.55,37.62,1,.19-81-3.8-91.94-45.79" transform="translate(-48.43 -37.97)"/><path class="cls-5" d="M488.32,664.65c-.25-.33-.74-.32-1-.68-2.09-3.57-13.75-23.52-18.17-31.46-4.84-8.71-30.91-64.7-38.77-93l-.13-.56c-11.07-55.41-16.89-98-9.93-133.36,4.44-22.56,2.73-23.09,18.55-65.39l.13-.31c18.26-41.71,25.42-64.49,27.41-72.13a13.32,13.32,0,0,0,.07-2.56c2-31.75-38.31-29-38.47-29-2.46,0-43.55-.73-44.38-8.3-.17-1.43,49.83-5.43,53.47-5.32.36-.11-54.71,2.43-55,2.92a5.7,5.7,0,0,0-.4,1l-.28,1c-1.8,2.35-2.5.27-2.13-2.66.13-12.34,42-14.68,48.9-15.37.19-6.55,9.83-24.46,30.92-38.29a19.79,19.79,0,0,1,4.63-2.25c51.13-16.92,65.4,31.8,47.36,110.62-10.48,58.68,27.47,91.66,31.82,95.22l.82.8c4.36,5,41.63,48.92,54.29,101.45A127.2,127.2,0,0,1,602,508.12c0,37.73-3.76,86.48-11.31,121-4.68,21.38-10.3,37-16.25,40.37C568.66,672.78,500.12,680.26,488.32,664.65Z" transform="translate(-48.43 -37.97)"/><path class="cls-6" d="M438.25,195.12c11.86-22.74,39,.2,39,.2l29.63.2" transform="translate(-48.43 -37.97)"/><path class="cls-6" d="M504.71,198c-5.53,2.09-28.85-.36-28.85-.36s-26.24-21.11-35.27-1.52c6.65,11.82,27.14,3.12,35.27,3.39,27,.89,28.47,2.63,29.53,2.46s2.87-2.6.2-3.92A1.1,1.1,0,0,0,504.71,198Z" transform="translate(-48.43 -37.97)"/><circle class="cls-6" cx="405.92" cy="157.18" r="3.45"/><circle class="cls-7" cx="407.74" cy="157.18" r="5.17"/><path class="cls-6" d="M508,195.81" transform="translate(-48.43 -37.97)"/><path d="M505.4,198.12c-.87,0-1.76.25-2.63.33a22.94,22.94,0,0,0-2.62.54l-.21,0a2.52,2.52,0,0,0-.85,0c-.17,0-.31-.1-.41,0a21.15,21.15,0,0,1-2.28,0c-.5-.1-1,0-1.5-.1a.59.59,0,0,0-.58.19q-4.38-.35-8.76-.66l-5.1-.33-2.55-.15c-.3,0-1.09-.31-1.43,0h-.11c0-.3-.43-.24-.62,0,0,0-.17,0-.19.85,0,.26.06.77.18.62a1,1,0,0,0,1-.06c5.29.32,10.57.68,15.86.9.94,0,1.9.11,2.87.15l.47,0h.5l2.06.4a33.3,33.3,0,0,0,3.7.71,1.55,1.55,0,0,0,.76-.12,1.12,1.12,0,0,0,1.34.13l0,0c1,.88,2.2-.16,2.55-1.12A1.6,1.6,0,0,0,505.4,198.12Z" transform="translate(-48.43 -37.97)"/><line x1="404.78" y1="180.57" x2="408.33" y2="164.02"/><path d="M453.16,218.53q.68-4.18,1.43-8.35c.24-1.39.43-2.79.79-4.16a29.78,29.78,0,0,1,1.33-4l.1,0a29.78,29.78,0,0,1-.45,4.23c-.23,1.39-.64,2.75-1,4.12q-1,4.11-2.12,8.2Z" transform="translate(-48.43 -37.97)"/><path class="cls-8" d="M457.51,202.78c45.47,14.54,43.92,14.94,46.33,13.38s1.4-9.08-4.2-8.11c-2.21.48-3.19,1.83-3.21,3.32a3.47,3.47,0,0,0,2.65,3.36c2,.52,4.1.11,4.49-1a2.59,2.59,0,0,0,.07-1.5c-.49-2.21-3.2-4.52-5-2.11a2.34,2.34,0,0,0-.48,1.4c0,2.88,5.76,2.27,3.13-.34" transform="translate(-48.43 -37.97)"/><rect class="cls-2" x="432.16" y="354.67" width="23.39" height="23.39" rx="8.34" ry="8.34" transform="translate(340.63 -244.52) rotate(45)"/><rect class="cls-2" x="425.46" y="379.41" width="24.56" height="24.56" rx="8.34" ry="8.34" transform="translate(356.75 -232.78) rotate(45)"/><rect class="cls-2" x="420.71" y="409.59" width="27.08" height="27.08" rx="8.34" ry="8.34" transform="translate(377.95 -221.1) rotate(45)"/><rect class="cls-2" x="430.96" y="397.13" width="25.79" height="25.79" rx="8.34" ry="8.34" transform="translate(371.5 -231.73) rotate(45)"/><path class="cls-2" d="M418.92,461.09v-7L418,441.88V430.53a6.22,6.22,0,0,1,6.51,1.3l8.85,8.85a7.3,7.3,0,0,1,0,10.3l-8.85,8.85C421.72,462.66,421.75,463.92,418.92,461.09Z" transform="translate(-48.43 -37.97)"/><path class="cls-2" d="M422.11,489.73l-1.45-11.18-1.5-14.29,8.2-6.45a7.3,7.3,0,0,1,10.3,0l10.81,10.81a7.3,7.3,0,0,1,0,10.3l-10.81,10.81C434.82,492.57,424.95,492.57,422.11,489.73Z" transform="translate(-48.43 -37.97)"/><rect class="cls-2" x="430.31" y="432.29" width="27.08" height="27.08" rx="8.34" ry="8.34" transform="translate(396.82 -221.24) rotate(45)"/><rect class="cls-2" x="445.16" y="414.83" width="27.08" height="27.08" rx="8.34" ry="8.34" transform="translate(388.82 -236.85) rotate(45)"/><rect class="cls-2" x="437.66" y="450.99" width="29.85" height="29.85" rx="8.34" ry="8.34" transform="translate(413.58 -221.54) rotate(45)"/><rect class="cls-2" x="459.33" y="432.49" width="28.43" height="28.43" rx="8.34" ry="8.34" transform="translate(406.13 -241.98) rotate(45)"/><path class="cls-2" d="M430.85,509.13,425,506.49l-4.37-20.08,10.18-11.32a7.3,7.3,0,0,1,10.3,0L453,487a7.3,7.3,0,0,1,0,10.3l-11.87,11.87A7.3,7.3,0,0,1,430.85,509.13Z" transform="translate(-48.43 -37.97)"/><rect class="cls-2" x="438.75" y="478.27" width="32.91" height="32.91" rx="8.34" ry="8.34" transform="translate(434.72 -214.95) rotate(45)"/><path class="cls-2" d="M431.72,540.8,425,510l6.69-5.44a7.3,7.3,0,0,1,10.3,0l13,13a7.3,7.3,0,0,1,0,10.3l-13,13A7.3,7.3,0,0,1,431.72,540.8Z" transform="translate(-48.43 -37.97)"/><rect class="cls-2" x="450.4" y="462.85" width="27.08" height="27.08" rx="8.34" ry="8.34" transform="translate(424.31 -226.49) rotate(45)"/><path class="cls-2" d="M443.07,565.54l-8.9-14.14c-1.28-4.73-2.15-7.35,0-11.17l8.9-8.9c2.83-2.83,7.46-7.2,10.3-4.37l14.14,14.14a7.3,7.3,0,0,1,0,10.3l-14.14,14.14A7.3,7.3,0,0,1,443.07,565.54Z" transform="translate(-48.43 -37.97)"/><rect class="cls-2" x="445.76" y="504.4" width="36.29" height="36.29" rx="8.34" ry="8.34" transform="translate(456.94 -212.95) rotate(45)"/><rect class="cls-2" x="451.9" y="491.42" width="34.56" height="34.56" rx="8.34" ry="8.34" transform="translate(448.69 -220.73) rotate(45)"/><rect class="cls-2" x="466.6" y="475.56" width="31.35" height="31.35" rx="8.34" ry="8.34" transform="translate(440.18 -235.11) rotate(45)"/><rect class="cls-2" x="473.46" y="450.11" width="29.85" height="29.85" rx="8.34" ry="8.34" transform="translate(423.45 -247.11) rotate(45)"/><path class="cls-2" d="M454.8,595.34,447.3,580c-4.43-9.1-5.45-11-2.62-13.79l10.13-11.87a7.3,7.3,0,0,1,10.3,0l15.36,15.36a7.3,7.3,0,0,1,0,10.3L465.1,595.34A7.3,7.3,0,0,1,454.8,595.34Z" transform="translate(-48.43 -37.97)"/><rect class="cls-2" x="450.76" y="546.4" width="36.29" height="36.29" rx="8.34" ry="8.34" transform="translate(488.1 -204.19) rotate(45)"/><rect class="cls-2" x="453.76" y="524.4" width="36.29" height="36.29" rx="8.34" ry="8.34" transform="translate(473.42 -212.75) rotate(45)"/><rect class="cls-2" x="467.51" y="538.1" width="36.29" height="36.29" rx="8.34" ry="8.34" transform="translate(487.14 -218.46) rotate(45)"/><rect class="cls-2" x="466.76" y="508.4" width="36.29" height="36.29" rx="8.34" ry="8.34" transform="translate(465.92 -226.63) rotate(45)"/><rect class="cls-2" x="479.51" y="520.1" width="36.29" height="36.29" rx="8.34" ry="8.34" transform="translate(477.93 -232.22) rotate(45)"/><rect class="cls-2" x="476.3" y="490.5" width="32.91" height="32.91" rx="8.34" ry="8.34" transform="translate(454.36 -237.92) rotate(45)"/><rect class="cls-2" x="485.81" y="464.21" width="31.35" height="31.35" rx="8.34" ry="8.34" transform="translate(437.78 -252.02) rotate(45)"/><path class="cls-2" d="M493.68,596.6l-19.74-30.22c-2.83-2.83-12.7,9.39-15.53,12.22l-8.61,6.86s19,32.81,20.25,34.16L486.7,606C489.53,603.19,496.52,599.43,493.68,596.6Z" transform="translate(-48.43 -37.97)"/><rect class="cls-2" x="470.51" y="589.1" width="36.29" height="36.29" rx="8.34" ry="8.34" transform="translate(524.08 -205.64) rotate(45)"/><rect class="cls-2" x="442.05" y="372.43" width="24.56" height="24.56" rx="8.34" ry="8.34" transform="translate(356.67 -246.55) rotate(45)"/><rect class="cls-2" x="456.28" y="390.15" width="25.79" height="25.79" rx="8.34" ry="8.34" transform="translate(373.98 -251.68) rotate(45)"/><rect class="cls-2" x="470.48" y="407.84" width="27.08" height="27.08" rx="8.34" ry="8.34" transform="translate(391.3 -256.81) rotate(45)"/><rect class="cls-2" x="484.65" y="425.5" width="28.43" height="28.43" rx="8.34" ry="8.34" transform="translate(408.61 -261.93) rotate(45)"/><rect class="cls-2" x="465.48" y="560.07" width="36.29" height="36.29" rx="8.34" ry="8.34" transform="translate(502.08 -210.59) rotate(45)"/><rect class="cls-2" x="478.11" y="572.97" width="38.1" height="38.1" rx="8.34" ry="8.34" transform="translate(515.8 -216.12) rotate(45)"/><rect class="cls-2" x="475.48" y="549.07" width="36.29" height="36.29" rx="8.34" ry="8.34" transform="translate(497.23 -220.88) rotate(45)"/><rect class="cls-2" x="498.78" y="443.13" width="29.85" height="29.85" rx="8.34" ry="8.34" transform="translate(425.92 -267.06) rotate(45)"/><rect class="cls-2" x="489.48" y="534.07" width="36.29" height="36.29" rx="8.34" ry="8.34" transform="translate(490.73 -235.18) rotate(45)"/><rect class="cls-2" x="491.95" y="503.39" width="34.56" height="34.56" rx="8.34" ry="8.34" transform="translate(468.89 -245.55) rotate(45)"/><path class="cls-2" d="M515.84,666.29a110.52,110.52,0,0,1-10.48,6.11l-8.73-3.49L487,664.54s-9.25-24.89-8.73-25.32c2.12-1.75,13.15-10.38,13.15-10.38,2.17-1.79,5.82-1,8.1,1.8l13.11,15.91c8.42,12.76,3.19,19.74,3.19,19.74Z" transform="translate(-48.43 -37.97)"/><path class="cls-2" d="M496.73,641.88l-18-18c-2.83-2.83-2.83-7.46,1.75-10.3l18-18c1.08-2.83,5.72-2.83,8.55,0l18,18a7.3,7.3,0,0,1,0,10.3l-18,18A7.3,7.3,0,0,1,496.73,641.88Z" transform="translate(-48.43 -37.97)"/><path class="cls-2" d="M493.52,668.4a7.3,7.3,0,0,1,0-10.3l19.41-19.41a7.3,7.3,0,0,1,10.3,0l15,14.17s-3.77,15.9-7,19.9S493.52,668.4,493.52,668.4Z" transform="translate(-48.43 -37.97)"/><rect class="cls-2" x="491.57" y="618.81" width="26.61" height="26.61" rx="6.41" ry="6.41" transform="translate(546.42 -209.83) rotate(45)"/><rect class="cls-2" x="505.67" y="630.78" width="26.61" height="26.61" rx="8.34" ry="8.34" transform="translate(559.01 -216.29) rotate(45)"/><rect class="cls-2" x="492.58" y="588.28" width="36.29" height="36.29" rx="8.34" ry="8.34" transform="translate(529.97 -221.49) rotate(45)"/><rect class="cls-2" x="490.58" y="563.28" width="36.29" height="36.29" rx="8.34" ry="8.34" transform="translate(511.7 -227.4) rotate(45)"/><rect class="cls-2" x="506.94" y="598.76" width="40.01" height="40.01" rx="8.34" ry="8.34" transform="translate(543.44 -229.35) rotate(45)"/><rect class="cls-2" x="508.94" y="582.76" width="40.01" height="40.01" rx="8.34" ry="8.34" transform="translate(532.71 -235.45) rotate(45)"/><rect class="cls-2" x="503.58" y="549.28" width="36.29" height="36.29" rx="8.34" ry="8.34" transform="translate(505.61 -240.69) rotate(45)"/><rect class="cls-2" x="499.87" y="481.76" width="32.91" height="32.91" rx="8.34" ry="8.34" transform="translate(455.09 -257.15) rotate(45)"/><rect class="cls-2" x="512.88" y="460.72" width="31.35" height="31.35" rx="8.34" ry="8.34" transform="translate(443.24 -272.18) rotate(45)"/><rect class="cls-2" x="505.93" y="515.37" width="36.29" height="36.29" rx="8.34" ry="8.34" transform="translate(482.32 -252.29) rotate(45)"/><rect class="cls-2" x="514.53" y="494.91" width="34.56" height="34.56" rx="8.34" ry="8.34" transform="translate(469.51 -264) rotate(45)"/><rect class="cls-2" x="456.61" y="354.67" width="23.39" height="23.39" rx="8.34" ry="8.34" transform="translate(347.79 -261.8) rotate(45)"/><rect class="cls-2" x="466.5" y="372.43" width="24.56" height="24.56" rx="8.34" ry="8.34" transform="translate(363.83 -263.84) rotate(45)"/><rect class="cls-2" x="480.73" y="390.15" width="25.79" height="25.79" rx="8.34" ry="8.34" transform="translate(381.14 -268.97) rotate(45)"/><rect class="cls-2" x="494.93" y="407.84" width="27.08" height="27.08" rx="8.34" ry="8.34" transform="translate(398.46 -274.09) rotate(45)"/><rect class="cls-2" x="518.45" y="530.23" width="38.68" height="38.68" rx="8.34" ry="8.34" transform="translate(497.69 -257.28) rotate(45)"/><rect class="cls-2" x="509.1" y="425.5" width="28.43" height="28.43" rx="8.34" ry="8.34" transform="translate(415.77 -279.22) rotate(45)"/><rect class="cls-2" x="519.69" y="561.4" width="40.01" height="40.01" rx="8.34" ry="8.34" transform="translate(520.75 -249.31) rotate(45)"/><rect class="cls-2" x="525.14" y="505.89" width="36.29" height="36.29" rx="8.34" ry="8.34" transform="translate(481.24 -268.65) rotate(45)"/><rect class="cls-2" x="533.28" y="543.82" width="40.01" height="40.01" rx="8.34" ry="8.34" transform="translate(512.3 -264.06) rotate(45)"/><rect class="cls-2" x="523.23" y="443.13" width="29.85" height="29.85" rx="8.34" ry="8.34" transform="translate(433.08 -284.35) rotate(45)"/><rect class="cls-2" x="529.56" y="479.14" width="32.91" height="32.91" rx="8.34" ry="8.34" transform="translate(461.94 -278.91) rotate(45)"/><rect class="cls-2" x="538.03" y="521.02" width="38.68" height="38.68" rx="8.34" ry="8.34" transform="translate(496.91 -273.82) rotate(45)"/><rect class="cls-2" x="539.48" y="499.26" width="36.99" height="34.56" rx="8.34" ry="8.34" transform="translate(480.25 -281.23) rotate(45)"/><rect class="cls-2" x="537.33" y="460.72" width="31.35" height="31.35" rx="8.34" ry="8.34" transform="translate(450.4 -289.47) rotate(45)"/><rect class="cls-2" x="481.06" y="356.42" width="23.39" height="23.39" rx="8.34" ry="8.34" transform="translate(356.19 -278.58) rotate(45)"/><rect class="cls-2" x="490.95" y="374.17" width="24.56" height="24.56" rx="8.34" ry="8.34" transform="translate(372.22 -280.62) rotate(45)"/><rect class="cls-2" x="505.18" y="391.9" width="25.79" height="25.79" rx="8.34" ry="8.34" transform="translate(389.54 -285.75) rotate(45)"/><rect class="cls-2" x="519.38" y="409.59" width="27.08" height="27.08" rx="8.34" ry="8.34" transform="translate(406.85 -290.87) rotate(45)"/><rect class="cls-2" x="533.55" y="427.25" width="28.43" height="28.43" rx="8.34" ry="8.34" transform="translate(424.17 -296) rotate(45)"/><rect class="cls-2" x="547.68" y="444.87" width="29.85" height="29.85" rx="8.34" ry="8.34" transform="translate(441.48 -301.12) rotate(45)"/><rect class="cls-2" x="550.52" y="481.76" width="32.91" height="32.91" rx="8.34" ry="8.34" transform="translate(469.93 -292.96) rotate(45)"/><rect class="cls-2" x="561.78" y="462.46" width="31.35" height="31.35" rx="8.34" ry="8.34" transform="translate(458.79 -306.25) rotate(45)"/><rect class="cls-2" x="505.51" y="356.42" width="23.39" height="23.39" rx="8.34" ry="8.34" transform="translate(363.35 -295.87) rotate(45)"/><rect class="cls-2" x="515.4" y="374.17" width="24.56" height="24.56" rx="8.34" ry="8.34" transform="translate(379.39 -297.91) rotate(45)"/><rect class="cls-2" x="529.63" y="391.9" width="25.79" height="25.79" rx="8.34" ry="8.34" transform="translate(396.7 -303.03) rotate(45)"/><path class="cls-2" d="M528.64,373.4l-6.25-6.25a7.3,7.3,0,0,1,0-10.3l3-3.17,14.84,17.46-1.35,2.25A7.3,7.3,0,0,1,528.64,373.4Z" transform="translate(-48.43 -37.97)"/><path class="cls-2" d="M554,418.75l-6.19-7.94a7.3,7.3,0,0,1,0-10.3l8.81-7.94s17.57,20.64,14.74,23.47l-7.07,2.7A7.3,7.3,0,0,1,554,418.75Z" transform="translate(-48.43 -37.97)"/><rect class="cls-2" x="545.83" y="411.59" width="27.08" height="27.08" rx="8.34" ry="8.34" transform="translate(416.01 -308.99) rotate(45)"/><rect class="cls-2" x="548.38" y="532.36" width="38.68" height="38.68" rx="8.34" ry="8.34" transform="translate(507.96 -277.82) rotate(45)"/><path class="cls-2" d="M543.49,394.31l-7.07-7.07a7.3,7.3,0,0,1,0-10.3l.09-.09c2.83-2.83,3.79-4,3.79-4l16.59,19.21a15.92,15.92,0,0,1-3,2.11l-.09.09C549.9,397.35,546.32,397.14,543.49,394.31Z" transform="translate(-48.43 -37.97)"/><path class="cls-2" d="M567.07,454.67l-9.81-9.81a7.3,7.3,0,0,1,0-10.3l9.81-9.81a7.3,7.3,0,0,1,10.3,0l4.57,9.81,5.24,10.3-9.81,9.81A7.3,7.3,0,0,1,567.07,454.67Z" transform="translate(-48.43 -37.97)"/><path class="cls-2" d="M581.91,475.76l-10.81-10.81a7.3,7.3,0,0,1,0-10.3l14.31-10.81s10.84,19.15,8,22l-1.21,9.94A7.3,7.3,0,0,1,581.91,475.76Z" transform="translate(-48.43 -37.97)"/><path class="cls-2" d="M580.46,439.24l-15-7.58a7.3,7.3,0,0,1-3.21-9.78l4.81-12.23c1.81-3.57,17.35,28.29,17.35,28.29C582.63,441.51,584,441,580.46,439.24Z" transform="translate(-48.43 -37.97)"/><rect class="cls-2" x="554.07" y="515.01" width="36.29" height="36.29" rx="8.34" ry="8.34" transform="translate(496.16 -286.43) rotate(45)"/><rect class="cls-2" x="562.05" y="503.03" width="34.56" height="34.56" rx="8.34" ry="8.34" transform="translate(489.16 -295.22) rotate(45)"/><path class="cls-9" d="M520.62,38a44.81,44.81,0,0,1-89.62.72" transform="translate(-48.43 -37.97)"/><path class="cls-2" d="M574.92,605.59l-14-14a7.3,7.3,0,0,1,0-10.3l14-14a7.3,7.3,0,0,1,10.3,0l13.16,10.54-2.62,20.77-10.54,7A7.3,7.3,0,0,1,574.92,605.59Z" transform="translate(-48.43 -37.97)"/><path class="cls-2" d="M581.91,524.21l-13-13a7.3,7.3,0,0,1,0-10.3l13-13a7.3,7.3,0,0,1,10.3,0l9.43,12.91a.28.28,0,0,1,.05.16v10.11c0,.06,0,6.23-.05,6.28l-9.43,6.79A7.3,7.3,0,0,1,581.91,524.21Z" transform="translate(-48.43 -37.97)"/><path class="cls-2" d="M584.47,558.81l-14.14-14.14c-2.83-2.83-6.73-2.78-3.9-5.61l18-18.83a7.3,7.3,0,0,1,10.3,0l-1.27,8.35v34.05C590.67,565.46,587.31,561.64,584.47,558.81Z" transform="translate(-48.43 -37.97)"/><path class="cls-2" d="M591.08,503.6l-11.48-11.48a8.36,8.36,0,0,1,0-11.79l14.48-15.48c2.42,6.66,6.79,38.76,6.79,38.76C597.63,506.84,594.32,506.84,591.08,503.6Z" transform="translate(-48.43 -37.97)"/><path class="cls-2" d="M587.15,642.74l-18.87-18a7.3,7.3,0,0,1,0-10.3l18-18a6.29,6.29,0,0,1,9.42,0Z" transform="translate(-48.43 -37.97)"/><rect class="cls-2" x="517.68" y="607.86" width="40.01" height="40.01" rx="8.34" ry="8.34" transform="translate(553.02 -234.27) rotate(45)"/><rect class="cls-2" x="526.68" y="591.86" width="40.01" height="40.01" rx="8.34" ry="8.34" transform="translate(544.34 -245.32) rotate(45)"/><path class="cls-2" d="M566.67,657.77,549,672.36c-2.38,2-27.48-30.4-25.74-33,2.17-3.25,20.21-16.86,20.21-16.86a7.3,7.3,0,0,1,10.25,1l14.59,17.71a11.81,11.81,0,0,1-1.6,16.58Z" transform="translate(-48.43 -37.97)"/><rect class="cls-2" x="536.52" y="575.27" width="40.01" height="40.01" rx="8.34" ry="8.34" transform="translate(535.49 -257.14) rotate(45)"/><path class="cls-2" d="M527.67,673.27l-17.08-.51c-2.83-2.83-2.83-11.83,0-14.66L530,638.7a7.3,7.3,0,0,1,10.3,0l15,14.17s-4.15,17.07-7,19.9l-11.07.51Z" transform="translate(-48.43 -37.97)"/><rect class="cls-2" x="546.06" y="565.92" width="26.61" height="26.61" rx="8.33" ry="8.33" transform="translate(637.93 -253.9) rotate(53.07)"/><rect class="cls-2" x="520.67" y="642.78" width="26.61" height="26.61" rx="8.34" ry="8.34" transform="translate(571.89 -223.38) rotate(45)"/><rect class="cls-2" x="525.67" y="626.78" width="26.61" height="26.61" rx="8.34" ry="8.34" transform="translate(562.04 -231.61) rotate(45)"/><rect class="cls-2" x="543.28" y="601.34" width="40.01" height="40.01" rx="8.34" ry="8.34" transform="translate(555.91 -254.29) rotate(45)"/><path class="cls-2" d="M570.54,583l-15.36-15.36a7.3,7.3,0,0,1,0-10.3l15.36-15.36a7.3,7.3,0,0,1,10.3,0l11.87,11-3.49,22.52L580.84,583A7.3,7.3,0,0,1,570.54,583Z" transform="translate(-48.43 -37.97)"/><path class="cls-2" d="M580.28,569.42l-17.05-17.05a7.3,7.3,0,0,1,0-10.3L580.28,525a7.3,7.3,0,0,1,10.3,0v44.4A7.3,7.3,0,0,1,580.28,569.42Z" transform="translate(-48.43 -37.97)"/><path class="cls-2" d="M586,543.3,574.7,532a8.36,8.36,0,0,1,0-11.79l11.3-11.3a8.36,8.36,0,0,1,11.79,0l3.71,7.59v15l-3.71,11.8A8.36,8.36,0,0,1,586,543.3Z" transform="translate(-48.43 -37.97)"/><rect class="cls-2" x="552.97" y="583.76" width="40.01" height="40.01" rx="8.34" ry="8.34" transform="translate(546.31 -266.29) rotate(45)"/><path class="cls-2" d="M576.21,604.16l-16.5-16.5a8.36,8.36,0,0,1,0-11.79l16.5-16.5a8.36,8.36,0,0,1,11.79,0l9.5,16.5v11.79l-9.5,16.5A8.36,8.36,0,0,1,576.21,604.16Z" transform="translate(-48.43 -37.97)"/><path class="cls-2" d="M536.05,671.5a8.36,8.36,0,0,1,0-11.79l7-7a8.36,8.36,0,0,1,11.79,0l7,7a8.36,8.36,0,0,1,0,11.79Z" transform="translate(-48.43 -37.97)"/><path class="cls-2" d="M581.22,590l-12.79-12.79a7.3,7.3,0,0,1,0-10.3l12.79-12.79c2.83-2.83,11.48-3.18,14.32-.35l-4,36.23A7.3,7.3,0,0,1,581.22,590Z" transform="translate(-48.43 -37.97)"/><rect class="cls-2" x="539.67" y="640.78" width="26.61" height="26.61" rx="8.34" ry="8.34" transform="translate(576.04 -237.41) rotate(45)"/><rect class="cls-2" x="550.67" y="622.78" width="26.61" height="26.61" rx="8.34" ry="8.34" transform="translate(566.53 -250.46) rotate(45)"/><path class="cls-2" d="M566.49,670.66l-19.3.77c-2.83-2.83,22.49-31,22.49-31,2.83-2.83,15.14,11.93,15.14,11.93L581.33,661l-7,7Z" transform="translate(-48.43 -37.97)"/><rect class="cls-2" x="555.67" y="639.78" width="26.61" height="26.61" rx="8.34" ry="8.34" transform="translate(580.02 -249.01) rotate(45)"/><path class="cls-2" d="M580.46,664.5,564,648a8.36,8.36,0,0,1,0-11.79l16.5-16.5c3.24-3.24,4.55-3.24,7.79,0l-3,44.79C582,667.74,583.7,667.74,580.46,664.5Z" transform="translate(-48.43 -37.97)"/><path class="cls-2" d="M588,647.12l-19.41-19.41a7.3,7.3,0,0,1,0-10.3L588,598a7.3,7.3,0,0,1,10.3,0l15,14.17s-4.15,17.07-7,19.9l-8.06,15A7.3,7.3,0,0,1,588,647.12Z" transform="translate(-48.43 -37.97)"/><path class="cls-2" d="M589.46,622.5,573,606a8.36,8.36,0,0,1,0-11.79l16.5-16.5c3.24-3.24,4.55-3.24,7.79,0l-3,44.79C591,625.74,592.7,625.74,589.46,622.5Z" transform="translate(-48.43 -37.97)"/><text x="-48.43" y="-37.97"></text><text x="-48.43" y="-37.97"></text><path class="cls-10" d="M386.59,967.56c-16.77-6.71-51.5,34.86-51.5,34.86l21.06,80.15s33.93-43.9,35.65-46.39a17.56,17.56,0,0,0,2.78-8.72c0-3.71,1.23-5.55.44-7.68-.18-.47-.46-4.94-.9-5.18s-.78-4.22-1.18-4.25c-8-.44-10.15-1.44-18.09-.09-.36.23-5.44.49-3.36,1.23.74-.45,1.54-1.27,2.4-1.37a61.94,61.94,0,0,1,7.75-.52c-1.05-.55,2.39-.19,3.5-.59.77-.28,1.47.29,2.19-.09,1.41-.74,2.92-10.31,4.47-10.68,1.86-.45,5.85-.6,7.66,0,3,1.06,2.92,12.16,3.62,15.29.75,3.37,0,8.57-.09,10,.37,5.64-2.16,11.19,2.11,16.88l33.84,41.13,21.67-79s-35.37-46.78-49.5-34.56" transform="translate(-48.43 -37.97)"/><path class="cls-10" d="M468.46,80c-9.84-3.94-27.44,13-36,22.18a13.37,13.37,0,0,0-3.15,12.53l14.94,56.87s27-35,28.39-36.94a14,14,0,0,0,2.21-6.95c0-3,1-4.42.35-6.11-.14-.38-.36-3.93-.72-4.12s-.62-3.36-.94-3.38c-6.4-.35-8.08-1.15-14.4-.07-.29.19-4.33.39-2.68,1,.59-.36,1.23-1,1.91-1.09a49.32,49.32,0,0,1,6.17-.42c-.84-.44,1.9-.15,2.79-.47.61-.22,1.17.23,1.74-.07,1.13-.59,2.32-8.21,3.56-8.5a14.56,14.56,0,0,1,6.1,0c2.41.85,2.32,9.69,2.88,12.18.6,2.68,0,6.82-.07,8,.29,4.49-1.72,8.91,1.68,13.44l26.94,32.75,15.53-56.63a12.76,12.76,0,0,0-2.53-11.57C514.83,92.7,496.53,73,488,80.37" transform="translate(-48.43 -37.97)"/><path d="M501.37,1011.48v18.43a18,18,0,0,1,14.23-6.54q7.14,0,11.37,2.68a8.21,8.21,0,0,1,4.23,7.24V1044l10.63,6.87H508.9l6.67-6.26v-8.35q0-5.93-5.74-5.93-8.46,0-8.46,8.43v5.85l6.67,6.26h-34.8l12.5-6.87v-25l-10.63-6.87Z" transform="translate(-48.43 -37.97)"/><path d="M599.12,1039.17h-29.8q0,7.25,13.16,7.25,12.47,0,16.4-4.72a4.86,4.86,0,0,1,.49,1.84q0,4-5.67,6.39t-15,2.4q-11.7,0-18.91-4T552.54,1038q0-6.23,7-10.58t17.14-4.34q9.15,0,15.09,4.27A17.92,17.92,0,0,1,599.12,1039.17Zm-13.51-4.7q0-6.23-7.91-6.24a9.36,9.36,0,0,0-5.84,1.79,5.4,5.4,0,0,0-2.35,4.45Z" transform="translate(-48.43 -37.97)"/><path d="M650.42,1024l-2.09,5.44H639V1044l12.5,6.87H610.84l12.5-6.87v-14.59H613.28l2.58-5.44h7.8v-2.31q0-4.75,4.81-7.47t13.21-2.72a27.84,27.84,0,0,1,10.81,1.84q4.35,1.84,4.35,4.56,0,4.23-8.08,4.23a29.69,29.69,0,0,1-4.09-.44,8.2,8.2,0,0,0,.41-2.25q0-2.77-3.08-2.77t-3,5V1024Z" transform="translate(-48.43 -37.97)"/><path d="M691,1024v20l10.44,6.87h-36.7l10.63-6.87v-12.5l-10.63-6.89Zm-8.27-12.33a10.38,10.38,0,0,1,5.75,1.62q2.51,1.62,2.51,3.71t-2.51,3.68a11,11,0,0,1-11.49,0q-2.5-1.61-2.5-3.69t2.5-3.72A10.38,10.38,0,0,1,682.74,1011.65Z" transform="translate(-48.43 -37.97)"/><path class="cls-2" d="M597.28,600.87a6.15,6.15,0,0,1-8.66-.52L577.24,587.5a6.15,6.15,0,0,1,.52-8.66l12.85-11.39a6.15,6.15,0,0,1,8.66.52Z" transform="translate(-48.43 -37.97)"/><path class="cls-2" d="M593.46,577.37l-12.79-12.79a7.3,7.3,0,0,1,0-10.3l12.79-12.79c2.83-2.83,4.84-2.83,7.68,0l-2.62,35.88C595.69,580.2,596.29,580.2,593.46,577.37Z" transform="translate(-48.43 -37.97)"/><path class="cls-2" d="M595.83,553.41l-11.61-11a6.45,6.45,0,0,1-.26-9.09l11-11.61c2.43-2.57,4.21-2.62,6.77-.19l-1.42,31.74C597.86,555.85,598.4,555.84,595.83,553.41Z" transform="translate(-48.43 -37.97)"/><path class="cls-2" d="M596.71,521.38l-6.45-6.45a8.36,8.36,0,0,1,0-11.79l6.45-6.45c3.24-3.24,1.55-3.24,4.79,0v24.68C598.26,524.63,600,524.63,596.71,521.38Z" transform="translate(-48.43 -37.97)"/><path class="cls-2" d="M596.17,585.45c2.63-2.86,6.11-5.24,30,56.48,9.93,48.85-2,41.35,6.12,71.45,2.07,7.7,3.56,11.62,4.79,14.17,6.24,12.95-6.76,2.47-.79,15.62,2.37,6.48,9.81,24.12,12.17,29.35,25.2,55.79,46.16,32.57,60.32,57.2-56.61-26.11-13.13.25-9.11,7.13-14.18-7.75-38.78-17-49.28-10.75-23.6,14.06-17.33,27.65-18.81,24.84-10.4-19.75,6.94-6.94,7-46.59,0-1.38-.21-2.75-.27-4.13-.22-5.4,1.33-9.43-2-22.53-2-8.13-9.07-27-10.12-29.88-4.76-13-6.45.6-9.29-10.69A77.93,77.93,0,0,0,611.58,722c-21.71-44.46-38-71.4-34.61-71.05C588.32,612.52,586.57,595.93,596.17,585.45Z" transform="translate(-48.43 -37.97)"/><path class="cls-2" d="M409.58,736.53c.54,1,.41,2.81-1.33,6.64-2.37,6.48-9.81,24.12-12.17,29.35-25.2,55.79-46.16,32.57-60.32,57.2,56.61-26.11,13.13.25,9.11,7.13,14.18-7.75,38.78-17,49.28-10.75,23.6,14.06,17.33,27.65,18.81,24.84,10.4-19.75-6.94-6.94-7-46.59,0-1.38.21-2.75.27-4.13.22-5.4-1.33-9.43,2-22.53,2-8.13,9.07-27,10.12-29.88,4.76-13,6.45.6,9.29-10.69A77.93,77.93,0,0,1,432.95,722c21.71-44.46,52-71.4,48.58-71.05-11.35-38.42-23.58-55-33.18-65.49-2.63-2.86-6.11-5.24-30,56.48-9.93,48.85,2,41.35-6.12,71.45-2.07,7.7-3.56,11.62-4.79,14.17-.8,1.67-2,3.94-1.71,5.88.17,1,3.93,3.16,4.17,3.59.46.84,11.09,4.17,13.66,4.72l-.33-.1" transform="translate(-48.43 -37.97)"/><path class="cls-4" d="M619.84,745.55s15.58-6,16.16-5.87" transform="translate(-48.43 -37.97)"/></svg>