<svg id="Layer_1" data-name="Layer 1" xmlns="http://www.w3.org/2000/svg" xmlns:xlink="http://www.w3.org/1999/xlink" viewBox="0 0 826.81 871.99"><defs><style>.cls-1{fill:url(#linear-gradient);}.cls-2{fill:url(#linear-gradient-2);}.cls-3{fill:url(#linear-gradient-3);}.cls-4{fill:url(#linear-gradient-4);}.cls-5{fill:url(#linear-gradient-5);}.cls-6{fill:url(#linear-gradient-6);}.cls-7{fill:url(#linear-gradient-7);}.cls-10,.cls-8{stroke-miterlimit:10;}.cls-8{fill:url(#linear-gradient-8);stroke:url(#linear-gradient-9);}.cls-9{opacity:0.26;}.cls-10{fill:none;stroke:#300;stroke-width:3px;}</style><linearGradient id="linear-gradient" x1="214.46" y1="-14.86" x2="214.46" y2="-15.14" gradientUnits="userSpaceOnUse"><stop offset="0.4"/><stop offset="0.44" stop-color="#320404"/><stop offset="0.48" stop-color="#700909"/><stop offset="0.53" stop-color="#a30d0d"/><stop offset="0.57" stop-color="#cb1111"/><stop offset="0.6" stop-color="#e71313"/><stop offset="0.64" stop-color="#f91414"/><stop offset="0.66" stop-color="#ff1515"/><stop offset="0.69" stop-color="#fb1519"/><stop offset="0.73" stop-color="#ed1425"/><stop offset="0.76" stop-color="#d81239"/><stop offset="0.8" stop-color="#b90f55"/><stop offset="0.84" stop-color="#920c79"/><stop offset="0.87" stop-color="#6208a5"/><stop offset="0.91" stop-color="#2a03d8"/><stop offset="0.94" stop-color="blue"/></linearGradient><linearGradient id="linear-gradient-2" x1="176" y1="8.52" x2="176" y2="8.24" xlink:href="#linear-gradient"/><linearGradient id="linear-gradient-3" x1="144.06" y1="6.95" x2="144.06" y2="6.9" xlink:href="#linear-gradient"/><linearGradient id="linear-gradient-4" x1="-16.97" y1="140.43" x2="-16.97" y2="140.38" xlink:href="#linear-gradient"/><linearGradient id="linear-gradient-5" x1="573.73" y1="4.52" x2="573.73" y2="4.24" xlink:href="#linear-gradient"/><linearGradient id="linear-gradient-6" x1="591.19" y1="1.9" x2="591.19" y2="1.62" xlink:href="#linear-gradient"/><linearGradient id="linear-gradient-7" x1="623.13" y1="0.33" x2="623.13" y2="0.28" xlink:href="#linear-gradient"/><linearGradient id="linear-gradient-8" x1="404.74" y1="856.18" x2="404.74" y2="1.94" gradientUnits="userSpaceOnUse"><stop offset="0.37" stop-opacity="0.5"/><stop offset="0.4" stop-color="#200000" stop-opacity="0.5"/><stop offset="0.46" stop-color="#750000" stop-opacity="0.5"/><stop offset="0.54" stop-color="#fc0000" stop-opacity="0.5"/><stop offset="0.54" stop-color="red" stop-opacity="0.5"/><stop offset="0.64" stop-color="#a05" stop-opacity="0.5"/><stop offset="0.75" stop-color="#61009e" stop-opacity="0.5"/><stop offset="0.85" stop-color="#2c00d3" stop-opacity="0.5"/><stop offset="0.93" stop-color="#0b00f4" stop-opacity="0.5"/><stop offset="1" stop-color="blue" stop-opacity="0.5"/></linearGradient><linearGradient id="linear-gradient-9" x1="-0.34" y1="428.94" x2="809.83" y2="428.94" gradientUnits="userSpaceOnUse"><stop offset="0.55" stop-color="red" stop-opacity="0"/><stop offset="0.99" stop-color="blue" stop-opacity="0"/></linearGradient></defs><title>logoandwai</title><text x="16.98" y="15.14"></text><path class="cls-1" d="M214.24-14.86l.41-.21C214.76-15.21,214.61-15.14,214.24-14.86Z" transform="translate(16.98 15.14)"/><path class="cls-2" d="M175.77,8.52l.41-.21C176.3,8.17,176.14,8.24,175.77,8.52Z" transform="translate(16.98 15.14)"/><path class="cls-3" d="M144,6.95l.05,0S144.08,6.9,144,6.95Z" transform="translate(16.98 15.14)"/><path class="cls-4" d="M-17,140.43s0,0,0,0S-17,140.38-17,140.43Z" transform="translate(16.98 15.14)"/><path class="cls-5" d="M573.95,4.52c-.37-.28-.52-.35-.41-.21Z" transform="translate(16.98 15.14)"/><path class="cls-6" d="M591.41,1.9c-.37-.28-.52-.35-.41-.21Z" transform="translate(16.98 15.14)"/><path class="cls-7" d="M623.1.29l.05,0S623.09.26,623.1.29Z" transform="translate(16.98 15.14)"/><path class="cls-8" d="M792.39,250.5c29.8-44.08,11.15-81.19,11.41-83.69a128,128,0,0,1-6.39,13.66c3.55-45.57-19.73-90.55-19.74-90.55-.3.13,4,18.67-1.08,44.18,3.37-39.5-14.43-62.48-14.43-62.48-.15.09-.31,7.25-1.58,18.49a93.42,93.42,0,0,0-5.13-17.89c-.76-4.54-14.27-23.7-14.28-23.7-.27.25,2.56,24.57-2.06,53.93C741.86,56.64,719,35.54,719,35.55c-.18.23.42,12.26-1.23,29.5C713.41,33.51,700.5,17,699.93,16c-.1.42-.5,13.16-2.47,30.66C692,24.83,683.19,11.54,682.71,10.74A414.92,414.92,0,0,1,677.46,60C669,23.51,648,10.45,647,9.39c.5.82,12.9,24.85,12.14,57.39-11.62-43-37.84-58.19-39.38-59.45,1.07,1.17,19.61,25.47,21.32,60.46C622.48,24,592,10.78,588.06,8.9c3.53,2.67,27.23,24.57,35.09,60.37-18.67-42.89-48.61-55.89-52.56-57.75,3.6,2.72,28.13,25.4,35.52,62.39C593,49.19,570,32.73,554.48,19.32c77.24,75.51,76.93,286.59-73.5,270.13L468.66,275l-.28.29c-10.26-16.07-19.94-41.1-14-74.43C472,104.16,414,94.25,403.78,96.39a32.6,32.6,0,0,1-3.94.61c-22.06,1.83-36,24.12-38.3,25.37-.19.06-4.37,6.11-4.57,6.16-5.34.31-16.26,1.24-44.21,11.21-1.93,1-4.8,3.42-5.17,6.37s1.32,5,3.12,2.66l.47-1.6c.27-.35.67-1.56,1.12-1.57,9.19-.21,54.31-1.5,59-1.72-5.94.29-38.94,3.79-58.69,4.14-1.78,0-1.28,1.15,0,2.43,9.81,10.08,40,10.69,64.88,11,5.43,1.15,9.93,0,19.36,3.92a26.18,26.18,0,0,1,9.54,6.69c5.17,5.83,6,11.56,4.61,15.65-2,6.06-4.85,13-7.4,20.47-11.45,33.78-5.28,10.09-21.39,53.14-4.5,12-7.59,20.71-9.81,27.47-158.14-18.47-197-199-119.37-274.89-15.48,13.41-38.57,29.87-51.64,54.59,7.39-37,31.92-59.67,35.52-62.39C232.93,8,203,21,184.32,63.89c7.86-35.8,31.57-57.7,35.1-60.37-4,1.88-34.43,15.08-53.06,58.89,1.7-35,20.25-59.29,21.32-60.47-1.55,1.27-27.76,16.48-39.39,59.46C147.53,28.86,159.93,4.83,160.44,4c-1,1.06-21.94,14.12-30.42,50.61a414.22,414.22,0,0,1-5.26-49.27c-.47.81-9.3,14.1-14.75,36-2-17.5-2.37-30.24-2.47-30.66-.57,1-13.48,17.49-17.79,49-1.64-17.24-1-29.27-1.22-29.5,0,0-20.92,21.09-18.17,66.9-4.62-29.36-3.79-53.68-4.06-53.93,0,0-13.52,19.16-14.28,23.69a93.33,93.33,0,0,0-5.12,17.9c-1.28-11.24-1.44-18.4-1.59-18.49,0,0-15.79,23-12.43,62.48-5.1-25.51-2.77-44-3.08-44.18,0,0-21.29,45-17.74,90.55a124.35,124.35,0,0,1-6.38-13.66c.26,2.5-18.39,39.61,11.41,83.69-8-6.28-12.6-10.33-12.36-9.93C5.61,237,1.9,269.2,30.28,301c-4.19-2-6.63-3.29-6.83-3.37,1.49,1.83,4.07,44.74,62,67.9-15.2-2.17-25.38-4.7-26-4.85,1.81,1.27,13.67,36,60.57,46.91-15.72,1.1-26.43.79-27,.78,1.24.46,43.57,14.2,91.08,17.75a314.47,314.47,0,0,1-35.2,1.46c1.27.47,45.42,14.79,94.17,18a336,336,0,0,1-35.66,2.11c2,.77,79.16,63.4,143.73,31.69,3.48,9.32,7.63,19.48,11.81,29.22-2.92-.59-8.75,6.77-28.41,57.6-9.93,48.85,2,41.35-6.12,71.45-2.08,7.7-3.56,11.62-4.79,14.17-6.24,12.94,6.76,2.47.79,15.62-2.37,6.48-9.8,24.12-12.17,29.35C287.1,752.58,266.14,729.36,252,754c5-2.33,9.29-4.23,12.84-5.77a41.11,41.11,0,0,0,3,72.19l-57.69-22.1-3.7,10,117.08,44.84,3.7-10-53.29-20.41c14,3.57,42-1.88,50.58-24.91A41.14,41.14,0,0,0,310,750.2h0c24,14.12,17.63,27.84,19.11,25,10.4-19.75-6.94-6.94-7-46.58,0-1.38.21-2.75.27-4.13.21-5.39-1.34-9.43,2-22.53,2.05-8.13,9.08-27,10.12-29.89,4.76-13,6.45.6,9.29-10.69a78.39,78.39,0,0,1,5.39-15.13c18.57-38,48-69.5,48-69.5l5.5,6.62s-49.82,214-32.38,228.45c5.13,4.24,12.55-5.06,16.35-22.64,1.2,14.4,4.73,24.16,9.08,27,5.1,3.26,11.8-5.52,14.46-21.86,1.94,14.63,5,22.35,9.57,24.62,3.39,1.69,7.94-13.56,9.8-20.54,1.74,6.15,6.93,20.19,9.67,21.55,3.26,1.62,7.74-14.33,9.59-20.79,1.77,6.58,4,24.89,6.87,26.3,3.91,2,6.71-12.69,8.62-22.06,1.76,6.45,4,20.67,6.81,22.06,3.38,1.68,5.93-13.56,7.79-20.52,1.57,4.45,3.45,19.4,5.71,20.52,5.63,2.8,8.94-5,10.65-24,3,10.81,5.45,17.57,9.51,18.62,3.84,1,7.14-11.64,8.24-20.38,2.08,4.29,6.34,14.9,8.78,15.46,19,4.35-33.93-230.43-33.93-230.43l4.26-6.81s32.71,49.53,42.39,66.24A77.56,77.56,0,0,1,541,658.81c3.64,11.06,4.36-2.65,10,10,1.25,2.79,11.59,21,14.21,29,4.22,12.84,3,17,3.56,22.34.15,1.37.46,2.72.56,4.1,2.71,39.55-17.49,28.14-5.72,47.1,1.68,2.7-3.55-10.55,19-26.25,2.73-1.91,6.61-2.74,11.09-2.79-1.13.48-2.24,1-3.34,1.57a41.12,41.12,0,0,0-17.07,55.59c10,18.84,30.52,26.87,49.84,19l-54.87,28.4,5,9.38,113.34-57.76-5-9.39L629,815.4c12-8.12,28.53-32.77,17-54.48a41.05,41.05,0,0,0-30.36-21.43c-7.32-5.38-7.71-7.5,25.51,5C625.26,721,606,745.62,576.91,691.75c-2.73-5-11.4-22.12-14.22-28.41-6.89-12.7,6.83-3.17-.32-15.64-1.4-2.46-5.16-6.12-7.77-13.65-10.22-29.45,2.2-22.82-11.17-70.84-18.32-38.91-26.14-51.43-30-54.59l-.09.26a1.77,1.77,0,0,0-1.86-.09c1.28-10.82,2.29-22,3.06-33.09.12-.31.23-.45.32-.36l-.28-.28c0-.67.09-1.35.13-2,64.43,16.36,115.14-26.86,117-27.47-.61,0-12.74-.06-30.12-2a493.16,493.16,0,0,0,67.74-14.93,345.06,345.06,0,0,1-41.83-1.92c50-2.71,98.17-17.68,99.46-18.16-.38,0-8.91.25-21.88-.46,34.07-13.93,43.43-40.87,45-42-.62.15-10.8,2.68-26,4.85,57.93-23.16,60.51-66.07,62-67.9-.2.07-2.64,1.36-6.84,3.37,28.38-31.82,24.67-64.08,25.55-65.84C805,240.17,800.39,244.22,792.39,250.5ZM277.18,743.32a7.62,7.62,0,0,1,3.32-.58C279.38,742.88,278.28,743.08,277.18,743.32Z" transform="translate(16.98 15.14)"/><g class="cls-9"><path d="M459,352.95l28.49,41.23s-22.6,63-22.78,62.72L439.2,408.24a27.6,27.6,0,0,1-2.45-10.34c.06-1.7.31-3.66.1-11.63,0,0,.27-16.5-3.24-17.73-2.09-.74-12.45-.55-14.61,0-1.89.45-.41,12.39-.41,12.39l-12.4,4.58-2.71,3h11.46l2.87-.32L425.2,391s.62,11.34-1.41,14.2-30.52,52.52-30.52,52.52c-.63,4.09-26.08-63.67-26.08-63.67L396,355.49v-56L307.66,394l39.64,82.93,166.18.16L547.06,394l-87.71-94.55Z" transform="translate(16.98 15.14)"/><path class="cls-10" d="M459,352.95l28.49,41.23s-22.6,63-22.78,62.72L439.2,408.24a27.6,27.6,0,0,1-2.45-10.34c.06-1.7.31-3.66.1-11.63,0,0,.27-16.5-3.24-17.73-2.09-.74-12.45-.55-14.61,0-1.89.45-.41,12.39-.41,12.39l-12.4,4.58-2.71,3h11.46l2.87-.32L425.2,391s.62,11.34-1.41,14.2-30.52,52.52-30.52,52.52c-.63,4.09-26.08-63.67-26.08-63.67L396,355.49v-56L307.66,394l39.64,82.93,166.18.16L547.06,394l-87.71-94.55Z" transform="translate(16.98 15.14)"/></g></svg>