<svg id="Layer_1" data-name="Layer 1" xmlns="http://www.w3.org/2000/svg" viewBox="0 0 1451.16 408.3"><defs><style>.cls-1{fill:none;stroke:#366;stroke-miterlimit:10;stroke-width:40px;}.cls-2{fill:#366;}.cls-3{fill:red;}</style></defs><title>text 18-12-2021</title><path class="cls-1" d="M314.57,179.26C158.34,24.47,67,291.44,67,291.44L266.55,491l98.9-98.9V314.48a69.54,69.54,0,0,1-44.79-65h139a69.54,69.54,0,0,1-43.35,64.42V392.1l98.9,98.9L714.78,291.44s-91.34-267-247.57-112.17" transform="translate(-44.04 -110.99)"/><path class="cls-2" d="M779.79,491.43V144.52h34.79V269q12.3-17.27,27.81-25.91a69.05,69.05,0,0,1,34.19-8.64q32.89,0,51.94,20.94t19,76.79V491.43H912.79V332.17q0-32.66-11.6-46.85t-31.95-14.2q-22.72,0-38.69,18.22t-16,64.6V491.43Z" transform="translate(-44.04 -110.99)"/><path class="cls-2" d="M1141.62,410.5l36,5.44q-9,40.23-32.54,60.7t-58.33,20.47q-43.78,0-70.87-33.25t-27.09-96q0-65.07,27.33-99.27t69.22-34.19q40,0,66.73,33.6t26.74,97.26l-.24,11.36H1024.72q2.13,42.36,19.64,63.89t42.6,21.53Q1126.23,462.09,1141.62,410.5Zm-114.77-68.86h115q-2.37-32.66-14-48.75-16.8-23.43-42.83-23.43-23.43,0-40,19.52T1026.85,341.64Z" transform="translate(-44.04 -110.99)"/><path class="cls-3" d="M1266.55,297.26v-8.48q0-21.7-9.6-33.43t-27.32-11.73c-1,0-2.58.09-4.74.25V146.08l10-.25q34.18,0,65.74,20.33t47,52.51q12.23,25.2,12.22,60.87V490.86h-93.3v-95.8h-41.66V297.26Z" transform="translate(-44.04 -110.99)"/><path class="cls-3" d="M1481.11,144.46Q1495,157.81,1495,176q0,19.46-13.1,31.93t-33.55,12.47q-20.45,0-33.55-12.47T1401.65,176q0-18.21,13.85-31.56a47,47,0,0,1,65.61,0Zm14.1,97.67V490.86h-93.3V242.13Z" transform="translate(-44.04 -110.99)"/></svg>